<svg width="595" height="53" viewBox="0 0 595 53" fill="none" xmlns="http://www.w3.org/2000/svg">
<g clip-path="url(#clip0_3250_31474)">
<g clip-path="url(#clip1_3250_31474)">
<path fill-rule="evenodd" clip-rule="evenodd" d="M5.14368 25.1703C7.9238 27.2469 10.2368 29.8838 12.0828 33.0811C13.9307 36.2772 15.0578 39.5988 15.4642 43.0459C15.8706 46.493 15.6475 49.8836 14.7951 53.2178L8.64987 49.7899C8.94748 48.0679 9.01961 46.3468 8.86625 44.6268C8.71288 42.9068 8.30981 41.2018 7.65703 39.5118L-0.577893 48.4058L-3.99999 46.5061L-3.99999 42.5953L4.30076 33.6986C3.16354 32.2882 1.88849 31.0866 0.475594 30.0938C-0.937299 29.101 -2.35987 28.2516 -3.99999 27.6483L-4 20.9431C-0.684364 21.8709 2.36356 23.0937 5.14368 25.1703Z" fill="#190B19"/>
<path fill-rule="evenodd" clip-rule="evenodd" d="M32.6754 25.1703C29.8953 27.2469 27.5823 29.8838 25.7363 33.0811C23.8884 36.2772 22.7613 39.5988 22.3549 43.0459C21.9485 46.493 22.1715 49.8836 23.024 53.2178L29.1692 49.7899C28.8716 48.0679 28.7995 46.3468 28.9528 44.6268C29.1062 42.9068 29.5093 41.2018 30.1621 39.5118L38.397 48.4058L41.8191 46.5061L41.8191 42.5953L33.5183 33.6986C34.6555 32.2882 35.9306 31.0866 37.3435 30.0938C38.7564 29.101 40.179 28.2516 41.8191 27.6483L41.8191 20.9431C38.5035 21.8709 35.4555 23.0937 32.6754 25.1703Z" fill="#190B19"/>
<path d="M37.2449 12.2395L31.9008 9.07471C29.3646 11.4011 24.4999 13.0591 21.1446 13.5448L21.1446 -11.0409L15.5569 -11.0409L15.5569 13.5448C12.1235 12.8769 7.76298 11.3151 5.08007 9.07471L-0.390686 12.2395C4.56503 17.2731 10.9021 19.9154 18.0714 19.9706C25.1034 20.0249 32.311 17.2703 37.2449 12.2395Z" fill="#190B19"/>
</g>
<g clip-path="url(#clip2_3250_31474)">
<path fill-rule="evenodd" clip-rule="evenodd" d="M55.4327 25.1704C58.2129 27.247 60.5259 29.8839 62.3718 33.0812C64.2197 36.2774 65.3469 39.599 65.7532 43.046C66.1596 46.4931 65.9366 49.8837 65.0842 53.2179L58.9389 49.79C59.2365 48.068 59.3087 46.347 59.1553 44.627C59.0019 42.9069 58.5989 41.2019 57.9461 39.5119L49.7112 48.406L46.2891 46.5062L46.2891 42.5955L54.5898 33.6987C53.4526 32.2883 52.1775 31.0867 50.7647 30.0939C49.3518 29.1011 47.9292 28.2517 46.2891 27.6485L46.2891 20.9433C49.6047 21.871 52.6526 23.0938 55.4327 25.1704Z" fill="#190B19"/>
<path fill-rule="evenodd" clip-rule="evenodd" d="M82.9647 25.1703C80.1845 27.2469 77.8715 29.8838 76.0256 33.0811C74.1777 36.2772 73.0505 39.5988 72.6442 43.0459C72.2378 46.493 72.4608 49.8836 73.3132 53.2178L79.4585 49.7899C79.1609 48.0679 79.0887 46.3468 79.2421 44.6268C79.3955 42.9068 79.7985 41.2018 80.4513 39.5118L88.6862 48.4058L92.1083 46.5061L92.1083 42.5953L83.8076 33.6986C84.9448 32.2882 86.2199 31.0866 87.6327 30.0938C89.0456 29.101 90.4682 28.2516 92.1083 27.6483L92.1083 20.9431C88.7927 21.8709 85.7448 23.0937 82.9647 25.1703Z" fill="#190B19"/>
<path d="M87.5338 12.2396L82.1898 9.07483C79.6536 11.4012 74.7889 13.0592 71.4335 13.545L71.4335 -11.0408L65.8459 -11.0408L65.8459 13.545C62.4124 12.877 58.0519 11.3152 55.369 9.07483L49.8983 12.2396C54.854 17.2732 61.191 19.9155 68.3603 19.9708C75.3923 20.025 82.6 17.2704 87.5338 12.2396Z" fill="#190B19"/>
</g>
<g clip-path="url(#clip3_3250_31474)">
<path fill-rule="evenodd" clip-rule="evenodd" d="M105.722 25.1704C108.502 27.247 110.815 29.8839 112.661 33.0812C114.509 36.2774 115.636 39.599 116.042 43.046C116.449 46.4931 116.226 49.8837 115.373 53.2179L109.228 49.79C109.526 48.068 109.598 46.347 109.445 44.627C109.291 42.9069 108.888 41.2019 108.235 39.5119L100 48.406L96.5783 46.5062L96.5783 42.5955L104.879 33.6987C103.742 32.2883 102.467 31.0867 101.054 30.0939C99.641 29.1011 98.2184 28.2517 96.5783 27.6485L96.5783 20.9433C99.8939 21.871 102.942 23.0938 105.722 25.1704Z" fill="#190B19"/>
<path fill-rule="evenodd" clip-rule="evenodd" d="M133.253 25.1703C130.473 27.2469 128.16 29.8838 126.314 33.0811C124.466 36.2772 123.339 39.5988 122.933 43.0459C122.527 46.493 122.75 49.8836 123.602 53.2178L129.747 49.7899C129.45 48.0679 129.377 46.3468 129.531 44.6268C129.684 42.9068 130.087 41.2018 130.74 39.5118L138.975 48.4058L142.397 46.5061L142.397 42.5953L134.096 33.6986C135.234 32.2882 136.509 31.0866 137.922 30.0938C139.334 29.101 140.757 28.2516 142.397 27.6483L142.397 20.9431C139.081 21.8709 136.034 23.0937 133.253 25.1703Z" fill="#190B19"/>
<path d="M137.823 12.2396L132.479 9.07483C129.943 11.4012 125.078 13.0592 121.723 13.545L121.723 -11.0408L116.135 -11.0408L116.135 13.545C112.702 12.877 108.341 11.3152 105.658 9.07483L100.188 12.2396C105.143 17.2732 111.48 19.9155 118.65 19.9708C125.682 20.025 132.889 17.2704 137.823 12.2396Z" fill="#190B19"/>
</g>
<g clip-path="url(#clip4_3250_31474)">
<path fill-rule="evenodd" clip-rule="evenodd" d="M156.011 25.1704C158.791 27.247 161.104 29.8839 162.95 33.0812C164.798 36.2774 165.925 39.599 166.332 43.046C166.738 46.4931 166.515 49.8837 165.663 53.2179L159.517 49.79C159.815 48.068 159.887 46.347 159.734 44.627C159.58 42.9069 159.177 41.2019 158.525 39.5119L150.29 48.406L146.868 46.5062L146.868 42.5955L155.168 33.6987C154.031 32.2883 152.756 31.0867 151.343 30.0939C149.93 29.1011 148.508 28.2517 146.868 27.6485L146.867 20.9433C150.183 21.871 153.231 23.0938 156.011 25.1704Z" fill="#190B19"/>
<path fill-rule="evenodd" clip-rule="evenodd" d="M183.543 25.1703C180.763 27.2469 178.45 29.8838 176.604 33.0811C174.756 36.2772 173.629 39.5988 173.223 43.0459C172.816 46.493 173.039 49.8836 173.892 53.2178L180.037 49.7899C179.739 48.0679 179.667 46.3468 179.821 44.6268C179.974 42.9068 180.377 41.2018 181.03 39.5118L189.265 48.4058L192.687 46.5061L192.687 42.5953L184.386 33.6986C185.523 32.2882 186.798 31.0866 188.211 30.0938C189.624 29.101 191.047 28.2516 192.687 27.6483L192.687 20.9431C189.371 21.8709 186.323 23.0937 183.543 25.1703Z" fill="#190B19"/>
<path d="M188.112 12.2396L182.768 9.07483C180.232 11.4012 175.368 13.0592 172.012 13.545L172.012 -11.0408L166.425 -11.0408L166.425 13.545C162.991 12.877 158.631 11.3152 155.948 9.07483L150.477 12.2396C155.433 17.2732 161.77 19.9155 168.939 19.9708C175.971 20.025 183.179 17.2704 188.112 12.2396Z" fill="#190B19"/>
</g>
<g clip-path="url(#clip5_3250_31474)">
<path fill-rule="evenodd" clip-rule="evenodd" d="M206.3 25.1704C209.081 27.247 211.394 29.8839 213.24 33.0812C215.087 36.2774 216.215 39.599 216.621 43.046C217.027 46.4931 216.804 49.8837 215.952 53.2179L209.807 49.79C210.104 48.068 210.176 46.347 210.023 44.627C209.87 42.9069 209.467 41.2019 208.814 39.5119L200.579 48.406L197.157 46.5062L197.157 42.5955L205.458 33.6987C204.32 32.2883 203.045 31.0867 201.632 30.0939C200.219 29.1011 198.797 28.2517 197.157 27.6485L197.157 20.9433C200.472 21.871 203.52 23.0938 206.3 25.1704Z" fill="#190B19"/>
<path fill-rule="evenodd" clip-rule="evenodd" d="M233.832 25.1703C231.052 27.2469 228.739 29.8838 226.893 33.0811C225.045 36.2772 223.918 39.5988 223.512 43.0459C223.105 46.493 223.328 49.8836 224.181 53.2178L230.326 49.7899C230.028 48.0679 229.956 46.3468 230.11 44.6268C230.263 42.9068 230.666 41.2018 231.319 39.5118L239.554 48.4058L242.976 46.5061L242.976 42.5953L234.675 33.6986C235.812 32.2882 237.087 31.0866 238.5 30.0938C239.913 29.101 241.336 28.2516 242.976 27.6483L242.976 20.9431C239.66 21.8709 236.612 23.0937 233.832 25.1703Z" fill="#190B19"/>
<path d="M238.401 12.2396L233.057 9.07483C230.521 11.4012 225.656 13.0592 222.301 13.545L222.301 -11.0408L216.713 -11.0408L216.713 13.545C213.28 12.877 208.92 11.3152 206.237 9.07483L200.766 12.2396C205.722 17.2732 212.059 19.9155 219.228 19.9708C226.26 20.025 233.468 17.2704 238.401 12.2396Z" fill="#190B19"/>
</g>
<g clip-path="url(#clip6_3250_31474)">
<path fill-rule="evenodd" clip-rule="evenodd" d="M256.589 25.1704C259.37 27.247 261.683 29.8839 263.529 33.0812C265.376 36.2774 266.504 39.599 266.91 43.046C267.316 46.4931 267.093 49.8837 266.241 53.2179L260.096 49.79C260.393 48.068 260.465 46.347 260.312 44.627C260.159 42.9069 259.756 41.2019 259.103 39.5119L250.868 48.406L247.446 46.5062L247.446 42.5955L255.747 33.6987C254.609 32.2883 253.334 31.0867 251.921 30.0939C250.508 29.1011 249.086 28.2517 247.446 27.6485L247.446 20.9433C250.761 21.871 253.809 23.0938 256.589 25.1704Z" fill="#190B19"/>
<path fill-rule="evenodd" clip-rule="evenodd" d="M284.121 25.1703C281.341 27.2469 279.028 29.8838 277.182 33.0811C275.334 36.2772 274.207 39.5988 273.801 43.0459C273.394 46.493 273.618 49.8836 274.47 53.2178L280.615 49.7899C280.318 48.0679 280.245 46.3468 280.399 44.6268C280.552 42.9068 280.955 41.2018 281.608 39.5118L289.843 48.4058L293.265 46.5061L293.265 42.5953L284.964 33.6986C286.102 32.2882 287.377 31.0866 288.789 30.0938C290.202 29.101 291.625 28.2516 293.265 27.6483L293.265 20.9431C289.949 21.8709 286.901 23.0937 284.121 25.1703Z" fill="#190B19"/>
<path d="M288.69 12.2396L283.346 9.07483C280.81 11.4012 275.946 13.0592 272.59 13.545L272.59 -11.0408L267.003 -11.0408L267.003 13.545C263.569 12.877 259.209 11.3152 256.526 9.07483L251.055 12.2396C256.011 17.2732 262.348 19.9155 269.517 19.9708C276.549 20.025 283.757 17.2704 288.69 12.2396Z" fill="#190B19"/>
</g>
<g clip-path="url(#clip7_3250_31474)">
<path fill-rule="evenodd" clip-rule="evenodd" d="M306.879 25.1704C309.659 27.247 311.972 29.8839 313.818 33.0812C315.666 36.2774 316.793 39.599 317.199 43.046C317.606 46.4931 317.383 49.8837 316.53 53.2179L310.385 49.79C310.683 48.068 310.755 46.347 310.601 44.627C310.448 42.9069 310.045 41.2019 309.392 39.5119L301.157 48.406L297.735 46.5062L297.735 42.5955L306.036 33.6987C304.899 32.2883 303.624 31.0867 302.211 30.0939C300.798 29.1011 299.375 28.2517 297.735 27.6485L297.735 20.9433C301.051 21.871 304.099 23.0938 306.879 25.1704Z" fill="#190B19"/>
<path fill-rule="evenodd" clip-rule="evenodd" d="M334.41 25.1703C331.63 27.2469 329.317 29.8838 327.471 33.0811C325.623 36.2772 324.496 39.5988 324.09 43.0459C323.684 46.493 323.907 49.8836 324.759 53.2178L330.904 49.7899C330.607 48.0679 330.534 46.3468 330.688 44.6268C330.841 42.9068 331.244 41.2018 331.897 39.5118L340.132 48.4058L343.554 46.5061L343.554 42.5953L335.253 33.6986C336.391 32.2882 337.666 31.0866 339.079 30.0938C340.491 29.101 341.914 28.2516 343.554 27.6483L343.554 20.9431C340.238 21.8709 337.191 23.0937 334.41 25.1703Z" fill="#190B19"/>
<path d="M338.98 12.2396L333.636 9.07483C331.1 11.4012 326.235 13.0592 322.88 13.545L322.88 -11.0408L317.292 -11.0408L317.292 13.545C313.859 12.877 309.498 11.3152 306.815 9.07483L301.344 12.2396C306.3 17.2732 312.637 19.9155 319.807 19.9708C326.839 20.025 334.046 17.2704 338.98 12.2396Z" fill="#190B19"/>
</g>
<g clip-path="url(#clip8_3250_31474)">
<path fill-rule="evenodd" clip-rule="evenodd" d="M357.168 25.1704C359.948 27.247 362.261 29.8839 364.107 33.0812C365.955 36.2774 367.082 39.599 367.489 43.046C367.895 46.4931 367.672 49.8837 366.82 53.2179L360.674 49.79C360.972 48.068 361.044 46.347 360.891 44.627C360.737 42.9069 360.334 41.2019 359.682 39.5119L351.447 48.406L348.025 46.5062L348.025 42.5955L356.325 33.6987C355.188 32.2883 353.913 31.0867 352.5 30.0939C351.087 29.1011 349.665 28.2517 348.025 27.6485L348.025 20.9433C351.34 21.871 354.388 23.0938 357.168 25.1704Z" fill="#190B19"/>
<path fill-rule="evenodd" clip-rule="evenodd" d="M384.7 25.1703C381.92 27.2469 379.607 29.8838 377.761 33.0811C375.913 36.2772 374.786 39.5988 374.379 43.0459C373.973 46.493 374.196 49.8836 375.048 53.2178L381.194 49.7899C380.896 48.0679 380.824 46.3468 380.977 44.6268C381.131 42.9068 381.534 41.2018 382.186 39.5118L390.421 48.4058L393.843 46.5061L393.843 42.5953L385.543 33.6986C386.68 32.2882 387.955 31.0866 389.368 30.0938C390.781 29.101 392.203 28.2516 393.843 27.6483L393.843 20.9431C390.528 21.8709 387.48 23.0937 384.7 25.1703Z" fill="#190B19"/>
<path d="M389.269 12.2396L383.925 9.07483C381.389 11.4012 376.524 13.0592 373.169 13.545L373.169 -11.0408L367.581 -11.0408L367.581 13.545C364.148 12.877 359.787 11.3152 357.104 9.07483L351.633 12.2396C356.589 17.2732 362.926 19.9155 370.095 19.9708C377.127 20.025 384.335 17.2704 389.269 12.2396Z" fill="#190B19"/>
</g>
<g clip-path="url(#clip9_3250_31474)">
<path fill-rule="evenodd" clip-rule="evenodd" d="M407.457 25.1704C410.237 27.247 412.55 29.8839 414.396 33.0812C416.244 36.2774 417.371 39.599 417.777 43.046C418.184 46.4931 417.961 49.8837 417.108 53.2179L410.963 49.79C411.261 48.068 411.333 46.347 411.179 44.627C411.026 42.9069 410.623 41.2019 409.97 39.5119L401.735 48.406L398.313 46.5062L398.313 42.5955L406.614 33.6987C405.477 32.2883 404.202 31.0867 402.789 30.0939C401.376 29.1011 399.953 28.2517 398.313 27.6485L398.313 20.9433C401.629 21.871 404.677 23.0938 407.457 25.1704Z" fill="#190B19"/>
<path fill-rule="evenodd" clip-rule="evenodd" d="M434.989 25.1703C432.209 27.2469 429.896 29.8838 428.05 33.0811C426.202 36.2772 425.075 39.5988 424.668 43.0459C424.262 46.493 424.485 49.8836 425.337 53.2178L431.483 49.7899C431.185 48.0679 431.113 46.3468 431.266 44.6268C431.42 42.9068 431.823 41.2018 432.475 39.5118L440.71 48.4058L444.132 46.5061L444.132 42.5953L435.832 33.6986C436.969 32.2882 438.244 31.0866 439.657 30.0938C441.07 29.101 442.492 28.2516 444.132 27.6483L444.133 20.9431C440.817 21.8709 437.769 23.0937 434.989 25.1703Z" fill="#190B19"/>
<path d="M439.558 12.2396L434.214 9.07483C431.678 11.4012 426.813 13.0592 423.458 13.545L423.458 -11.0408L417.87 -11.0408L417.87 13.545C414.437 12.877 410.076 11.3152 407.393 9.07483L401.923 12.2396C406.878 17.2732 413.215 19.9155 420.385 19.9708C427.417 20.025 434.624 17.2704 439.558 12.2396Z" fill="#190B19"/>
</g>
<g clip-path="url(#clip10_3250_31474)">
<path fill-rule="evenodd" clip-rule="evenodd" d="M457.746 25.1704C460.526 27.247 462.839 29.8839 464.685 33.0812C466.533 36.2774 467.66 39.599 468.067 43.046C468.473 46.4931 468.25 49.8837 467.397 53.2179L461.252 49.79C461.55 48.068 461.622 46.347 461.469 44.627C461.315 42.9069 460.912 41.2019 460.259 39.5119L452.024 48.406L448.602 46.5062L448.602 42.5955L456.903 33.6987C455.766 32.2883 454.491 31.0867 453.078 30.0939C451.665 29.1011 450.242 28.2517 448.602 27.6485L448.602 20.9433C451.918 21.871 454.966 23.0938 457.746 25.1704Z" fill="#190B19"/>
<path fill-rule="evenodd" clip-rule="evenodd" d="M485.278 25.1703C482.498 27.2469 480.185 29.8838 478.339 33.0811C476.491 36.2772 475.364 39.5988 474.958 43.0459C474.551 46.493 474.774 49.8836 475.627 53.2178L481.772 49.7899C481.474 48.0679 481.402 46.3468 481.556 44.6268C481.709 42.9068 482.112 41.2018 482.765 39.5118L491 48.4058L494.422 46.5061L494.422 42.5953L486.121 33.6986C487.258 32.2882 488.533 31.0866 489.946 30.0938C491.359 29.101 492.782 28.2516 494.422 27.6483L494.422 20.9431C491.106 21.8709 488.058 23.0937 485.278 25.1703Z" fill="#190B19"/>
<path d="M489.848 12.2396L484.503 9.07483C481.967 11.4012 477.103 13.0592 473.747 13.545L473.747 -11.0408L468.16 -11.0408L468.16 13.545C464.726 12.877 460.366 11.3152 457.683 9.07483L452.212 12.2396C457.168 17.2732 463.505 19.9155 470.674 19.9708C477.706 20.025 484.914 17.2704 489.848 12.2396Z" fill="#190B19"/>
</g>
<g clip-path="url(#clip11_3250_31474)">
<path fill-rule="evenodd" clip-rule="evenodd" d="M508.035 25.1704C510.816 27.247 513.129 29.8839 514.975 33.0812C516.822 36.2774 517.95 39.599 518.356 43.046C518.762 46.4931 518.539 49.8837 517.687 53.2179L511.542 49.79C511.839 48.068 511.911 46.347 511.758 44.627C511.605 42.9069 511.202 41.2019 510.549 39.5119L502.314 48.406L498.892 46.5062L498.892 42.5955L507.193 33.6987C506.055 32.2883 504.78 31.0867 503.367 30.0939C501.954 29.1011 500.532 28.2517 498.892 27.6485L498.892 20.9433C502.207 21.871 505.255 23.0938 508.035 25.1704Z" fill="#190B19"/>
<path fill-rule="evenodd" clip-rule="evenodd" d="M535.567 25.1703C532.787 27.2469 530.474 29.8838 528.628 33.0811C526.78 36.2772 525.653 39.5988 525.247 43.0459C524.84 46.493 525.063 49.8836 525.916 53.2178L532.061 49.7899C531.763 48.0679 531.691 46.3468 531.845 44.6268C531.998 42.9068 532.401 41.2018 533.054 39.5118L541.289 48.4058L544.711 46.5061L544.711 42.5953L536.41 33.6986C537.547 32.2882 538.822 31.0866 540.235 30.0938C541.648 29.101 543.071 28.2516 544.711 27.6483L544.711 20.9431C541.395 21.8709 538.347 23.0937 535.567 25.1703Z" fill="#190B19"/>
<path d="M540.137 12.2396L534.793 9.07483C532.256 11.4012 527.392 13.0592 524.036 13.545L524.036 -11.0408L518.449 -11.0408L518.449 13.545C515.015 12.877 510.655 11.3152 507.972 9.07483L502.501 12.2396C507.457 17.2732 513.794 19.9155 520.963 19.9708C527.995 20.025 535.203 17.2704 540.137 12.2396Z" fill="#190B19"/>
</g>
<g clip-path="url(#clip12_3250_31474)">
<path fill-rule="evenodd" clip-rule="evenodd" d="M558.325 25.1704C561.105 27.247 563.418 29.8839 565.264 33.0812C567.112 36.2774 568.239 39.599 568.645 43.046C569.052 46.4931 568.828 49.8837 567.976 53.2179L561.831 49.79C562.128 48.068 562.201 46.347 562.047 44.627C561.894 42.9069 561.491 41.2019 560.838 39.5119L552.603 48.406L549.181 46.5062L549.181 42.5955L557.482 33.6987C556.344 32.2883 555.069 31.0867 553.657 30.0939C552.244 29.1011 550.821 28.2517 549.181 27.6485L549.181 20.9433C552.497 21.871 555.545 23.0938 558.325 25.1704Z" fill="#190B19"/>
<path fill-rule="evenodd" clip-rule="evenodd" d="M585.856 25.1703C583.076 27.2469 580.763 29.8838 578.917 33.0811C577.069 36.2772 575.942 39.5988 575.536 43.0459C575.13 46.493 575.353 49.8836 576.205 53.2178L582.35 49.7899C582.053 48.0679 581.98 46.3468 582.134 44.6268C582.287 42.9068 582.69 41.2018 583.343 39.5118L591.578 48.4058L595 46.5061L595 42.5953L586.699 33.6986C587.837 32.2882 589.112 31.0866 590.524 30.0938C591.937 29.101 593.36 28.2516 595 27.6483L595 20.9431C591.684 21.8709 588.637 23.0937 585.856 25.1703Z" fill="#190B19"/>
<path d="M590.426 12.2396L585.082 9.07483C582.545 11.4012 577.681 13.0592 574.325 13.545L574.325 -11.0408L568.738 -11.0408L568.738 13.545C565.304 12.877 560.944 11.3152 558.261 9.07483L552.79 12.2396C557.746 17.2732 564.083 19.9155 571.252 19.9708C578.284 20.025 585.492 17.2704 590.426 12.2396Z" fill="#190B19"/>
</g>
</g>
<defs>
<clipPath id="clip0_3250_31474">
<rect width="599" height="58.9801" fill="white" transform="translate(-4 -6)"/>
</clipPath>
<clipPath id="clip1_3250_31474">
<rect width="45.819" height="59.5086" fill="white" transform="matrix(1 0 0 -1 -4 53.2173)"/>
</clipPath>
<clipPath id="clip2_3250_31474">
<rect width="45.819" height="59.5086" fill="white" transform="matrix(1 0 0 -1 46.2891 53.2174)"/>
</clipPath>
<clipPath id="clip3_3250_31474">
<rect width="45.819" height="59.5086" fill="white" transform="matrix(1 0 0 -1 96.5783 53.2174)"/>
</clipPath>
<clipPath id="clip4_3250_31474">
<rect width="45.819" height="59.5086" fill="white" transform="matrix(1 0 0 -1 146.867 53.2174)"/>
</clipPath>
<clipPath id="clip5_3250_31474">
<rect width="45.819" height="59.5086" fill="white" transform="matrix(1 0 0 -1 197.157 53.2174)"/>
</clipPath>
<clipPath id="clip6_3250_31474">
<rect width="45.819" height="59.5086" fill="white" transform="matrix(1 0 0 -1 247.446 53.2174)"/>
</clipPath>
<clipPath id="clip7_3250_31474">
<rect width="45.819" height="59.5086" fill="white" transform="matrix(1 0 0 -1 297.735 53.2174)"/>
</clipPath>
<clipPath id="clip8_3250_31474">
<rect width="45.819" height="59.5086" fill="white" transform="matrix(1 0 0 -1 348.024 53.2174)"/>
</clipPath>
<clipPath id="clip9_3250_31474">
<rect width="45.819" height="59.5086" fill="white" transform="matrix(1 0 0 -1 398.313 53.2174)"/>
</clipPath>
<clipPath id="clip10_3250_31474">
<rect width="45.819" height="59.5086" fill="white" transform="matrix(1 0 0 -1 448.603 53.2174)"/>
</clipPath>
<clipPath id="clip11_3250_31474">
<rect width="45.819" height="59.5086" fill="white" transform="matrix(1 0 0 -1 498.892 53.2174)"/>
</clipPath>
<clipPath id="clip12_3250_31474">
<rect width="45.819" height="59.5086" fill="white" transform="matrix(1 0 0 -1 549.181 53.2174)"/>
</clipPath>
</defs>
</svg>
