<svg width="322" height="187" viewBox="0 0 322 187" fill="none" xmlns="http://www.w3.org/2000/svg">
<g clip-path="url(#clip0_3250_30799)">
<mask id="mask0_3250_30799" style="mask-type:luminance" maskUnits="userSpaceOnUse" x="0" y="0" width="323" height="198">
<path d="M322.301 0H0.0129089V197.07H322.301V0Z" fill="white"/>
</mask>
<g mask="url(#mask0_3250_30799)">
<path fill-rule="evenodd" clip-rule="evenodd" d="M227.844 501.957C334.085 501.957 420.21 415.87 420.21 309.675C420.21 203.48 334.085 117.393 227.844 117.393C121.604 117.393 35.4788 203.48 35.4788 309.675C35.4788 415.87 121.604 501.957 227.844 501.957Z" fill="#A8E3D8" fill-opacity="0.9"/>
<path fill-rule="evenodd" clip-rule="evenodd" d="M265.704 61.2854C265.755 62.284 265.829 62.6809 266.537 63.3252C266.773 63.5397 266.966 63.5271 267.112 63.5173C267.311 63.5043 267.427 63.4966 267.458 64.0632C267.477 64.4203 267.251 64.6657 267.023 64.9127C266.889 65.0591 266.754 65.2059 266.669 65.3769C265.567 67.5914 266.266 70.4305 266.82 72.6781C266.838 72.7546 266.858 72.8304 266.876 72.9055C267.155 74.0426 267.533 75.2042 267.916 76.3793C269.09 79.9838 270.304 83.7153 268.831 87.2613C268.767 87.4136 268.708 87.6243 268.643 87.8516C268.509 88.3286 268.353 88.8798 268.095 89.1254C267.593 88.8606 267.226 88.9764 266.995 89.4734L266.99 89.4792C266.853 89.6333 266.716 89.7873 266.58 89.9413C265.701 90.7539 264.766 91.0561 263.601 90.624C261.25 89.7531 260.861 87.0223 260.849 84.8718C260.836 82.502 261.34 80.0201 261.879 77.7113C261.9 77.6202 261.923 77.5279 261.945 77.4346C262.197 76.3898 262.478 75.2233 261.795 74.2605C261.368 73.6596 260.881 73.6287 260.408 73.5987C260.102 73.5792 259.802 73.5601 259.53 73.3861C259.165 73.1527 259.241 72.1837 259.324 71.1545C259.407 70.109 259.494 69.0014 259.129 68.5391C257.861 66.9376 257.419 70.8555 257.399 71.6557C257.376 72.5322 257.424 73.5549 257.837 74.3495C257.986 74.6353 258.287 74.9052 258.588 75.1742C258.945 75.4927 259.3 75.8101 259.399 76.1517C259.508 76.5351 259.232 77.3171 258.994 77.9907C258.867 78.3518 258.75 78.6818 258.71 78.9024C258.534 79.8762 258.472 80.8709 258.421 81.858C258.25 85.1923 258.772 88.7008 261.066 91.2884C262.072 92.4232 263.777 93.712 265.371 93.5047C266.416 93.3698 267.465 92.9161 268.473 92.4798C268.823 92.3283 269.168 92.1784 269.507 92.0452C270.389 95.4388 271.716 98.7258 273.129 101.93C273.576 102.944 274.012 103.966 274.45 104.988V104.989C275.215 106.778 275.981 108.57 276.801 110.321C278.558 114.067 281.02 117.454 283.473 120.828C284.819 122.679 286.161 124.525 287.382 126.425C290.712 131.602 292.578 137.543 293.026 143.655C293.069 144.243 293.024 144.92 292.98 145.607C292.914 146.607 292.847 147.629 293.046 148.429C293.104 148.658 293.159 148.862 293.211 149.053C293.446 149.921 293.601 150.496 293.432 151.628C293.372 152.033 293.297 152.43 293.222 152.823L293.221 152.824C293.012 153.921 292.809 154.992 292.95 156.142C292.988 156.459 293.052 156.81 293.119 157.18V157.181C293.348 158.43 293.614 159.886 293.057 160.877C292.791 160.594 292.526 160.357 292.27 160.128H292.269C291.692 159.611 291.165 159.141 290.8 158.285C290.636 157.901 290.542 157.537 290.455 157.201C290.261 156.447 290.104 155.838 289.266 155.457C288.88 155.282 288.534 155.187 288.206 155.096C287.655 154.943 287.151 154.803 286.579 154.322C285.471 153.387 284.715 152.246 284.17 150.909C283.238 148.628 283.104 146.154 283.891 143.811C284.522 141.933 286.367 138.416 288.954 139.675C288.877 139.516 288.804 139.354 288.733 139.194V139.193C288.448 138.553 288.166 137.924 287.581 137.514C287.274 137.299 286.893 137.154 286.502 137.004C286.08 136.843 285.645 136.678 285.276 136.414C284.479 135.846 283.576 135.24 282.687 134.824C282.416 134.698 282.156 134.62 281.884 134.54H281.883C281.809 134.518 281.734 134.496 281.658 134.472C281.32 134.368 280.744 134.405 280.49 134.421C280.422 134.426 280.377 134.428 280.366 134.426C278.838 134.196 277.134 133.46 276.202 132.351C275.499 131.517 274.879 130.737 274.342 129.782C273.72 128.675 273.441 128.617 272.437 128.407C272.317 128.382 272.186 128.354 272.044 128.323C270.103 127.896 268.872 127.604 267.32 126.163C265.644 124.609 264.406 122.681 263.18 120.772L263.079 120.615C262.454 119.643 261.894 119.443 261.008 119.127C260.846 119.07 260.674 119.008 260.489 118.937C260.168 118.815 259.79 118.498 259.414 118.181C258.971 117.808 258.529 117.437 258.185 117.389C258.083 117.375 257.77 117.49 257.46 117.605C257.207 117.698 256.957 117.791 256.823 117.812C256.291 117.898 255.828 117.883 255.296 117.827C254.073 117.698 252.991 117.375 252.169 116.416C249.636 113.467 248.863 106.515 252.332 104.007C252.54 103.855 252.775 103.73 253.011 103.604C253.521 103.332 254.036 103.058 254.302 102.515C254.674 101.758 254.596 100.446 254.539 99.4726C254.527 99.2736 254.516 99.0896 254.51 98.9264C254.469 97.8308 254.418 96.6377 254.254 95.557C254.179 95.06 254.123 94.851 253.92 94.3539C253.584 93.528 253.447 93.4947 252.924 93.3665C252.824 93.3415 252.707 93.3124 252.573 93.2741C252.324 93.2033 252.104 93.1525 251.905 93.1076C251.159 92.9369 250.706 92.8328 250.135 91.9478C249.558 91.0536 249.287 89.9263 249.235 88.869C249.216 88.4918 249.269 88.1246 249.322 87.7658C249.407 87.1872 249.488 86.6285 249.26 86.0773C249.02 85.5012 248.69 84.9867 248.359 84.4696C247.937 83.8119 247.513 83.1493 247.266 82.3484C247.236 82.2548 247.204 82.152 247.169 82.0418C246.754 80.7343 246.004 78.3665 246.879 77.3409C247.065 77.1225 247.315 76.9858 247.572 76.845C247.902 76.6645 248.243 76.4774 248.48 76.1027C248.593 75.9241 248.695 75.7578 248.792 75.6011V75.601C249.324 74.7395 249.678 74.1657 250.6 73.3914C250.853 73.1784 251.104 72.9326 251.358 72.6829C251.91 72.1405 252.481 71.5796 253.144 71.2969C253.688 71.0651 254.214 71.1786 254.71 71.2853C255.083 71.3656 255.438 71.4422 255.77 71.3652C256.352 71.2302 256.426 70.2558 256.494 69.3755V69.3754C256.525 68.9806 256.553 68.6047 256.625 68.3319C256.941 67.1438 257.618 65.9053 258.437 64.9782C258.547 64.8536 258.668 64.7695 258.787 64.6867C258.965 64.5636 259.137 64.4433 259.265 64.1973C259.422 63.894 259.459 63.5206 259.498 63.145C259.529 62.8302 259.562 62.5138 259.664 62.2359C259.933 61.5075 260.585 60.2535 261.313 59.8543C262.511 59.1984 263.238 59.8612 263.932 60.4948C264.472 60.9884 264.994 61.4642 265.704 61.2854ZM293.276 120.547C295.631 121.897 295.116 125.552 294.805 127.763V127.765C294.8 127.802 294.794 127.84 294.789 127.877C294.784 127.914 294.778 127.952 294.773 127.987C294.662 128.781 294.759 129.582 294.853 130.368C294.921 130.937 294.988 131.498 294.976 132.044C294.955 132.954 294.655 133.182 294.313 133.442C294.104 133.601 293.88 133.771 293.696 134.117C293.558 133.759 293.384 133.377 293.206 132.985C292.833 132.169 292.441 131.308 292.322 130.526L292.042 129.793C292.279 129.698 292.405 129.533 292.419 129.297C292.495 128.872 292.512 128.441 292.53 128.009C292.536 127.87 292.542 127.731 292.549 127.591C292.678 125.227 292.857 122.879 293.276 120.547ZM246.096 89.8048C246.114 89.7415 246.132 89.6782 246.151 89.6166C246.112 88.65 245.894 86.6518 244.8 86.1906C243.426 85.6111 243.021 87.2255 243.057 88.3045C243.086 89.1654 243.45 90.7406 244.298 91.2193C245.491 91.892 245.812 90.7847 246.096 89.8048ZM244.416 117.467C244.441 119.232 244.466 120.976 245.004 122.682C245.638 124.688 246.699 126.621 247.748 128.434C249.79 131.96 250.277 135.285 250.523 139.316C246.684 137.595 244.59 131.714 243.323 128.036C243.144 127.516 242.964 126.997 242.783 126.476C242.286 125.048 241.788 123.616 241.324 122.179C241.235 121.905 241.137 121.617 241.035 121.322C240.423 119.538 239.701 117.432 240.324 115.686C240.344 115.701 240.364 115.716 240.384 115.731C240.408 115.749 240.431 115.766 240.454 115.783L240.463 115.788C241.76 116.745 242.348 117.18 243.123 115.437C243.428 115.773 243.735 116.108 244.041 116.445L244.145 116.559C244.232 116.654 244.319 116.749 244.406 116.844C244.409 117.052 244.412 117.26 244.416 117.467ZM238.866 97.5718C238.657 98.5301 238.492 99.4901 238.337 100.458C238.384 100.557 238.431 100.658 238.479 100.76C239 101.874 239.567 103.088 240.886 103.387C241.097 103.436 241.295 103.41 241.492 103.384C241.731 103.353 241.967 103.322 242.218 103.426C242.556 103.565 242.8 103.878 243.04 104.185C243.198 104.386 243.354 104.586 243.533 104.733C245.625 106.442 247.965 103.24 246.823 101.442C245.441 102.92 243.886 102.434 243.386 100.426C242.909 98.5135 243.61 96.1273 244.617 94.5121C242.756 93.6721 241.619 93.7278 239.966 94.8585C239.912 94.8943 239.865 94.9268 239.821 94.9559C239.62 95.0916 239.51 95.1657 239.438 95.2656C239.35 95.3855 239.316 95.5437 239.24 95.8909V95.8917C239.23 95.9392 239.219 95.9899 239.206 96.0441C239.16 96.2539 239.113 96.4628 239.066 96.6718C238.999 96.9724 238.931 97.2721 238.866 97.5718ZM269.736 135.173C269.61 135.274 269.481 135.37 269.351 135.466C269.08 135.669 268.808 135.871 268.571 136.11C268.474 136.208 268.316 136.444 268.158 136.682C267.965 136.972 267.769 137.264 267.678 137.315C267.014 137.682 266.434 137.21 265.785 136.618C264.507 135.451 263.71 132.974 263.77 131.26C263.84 129.26 265.254 127.887 267.047 129.313C268.488 130.46 268.905 132.075 269.327 133.708C269.454 134.199 269.58 134.691 269.736 135.173ZM260.489 156.99C261.935 156.804 262.885 157.029 264.306 157.38C264.727 155.629 264.285 153.35 263.123 151.931C262.865 151.615 262.477 151.369 262.112 151.139C261.714 150.886 261.343 150.652 261.199 150.361C261.018 149.995 260.978 149.462 260.936 148.921C260.9 148.432 260.862 147.937 260.72 147.552C260.48 150.726 260.344 153.815 260.489 156.99ZM239.595 154.185C240.05 153.276 240.506 152.367 240.961 151.458C241.258 151.928 242.129 153.157 242.848 152.764C243.177 152.584 243.144 151.801 243.114 151.081C243.095 150.617 243.077 150.179 243.157 149.945C244.123 151.023 244.603 152.294 244.464 153.736C244.414 154.25 244.257 154.969 244.106 155.462C244.048 155.651 243.91 155.896 243.77 156.148C243.504 156.621 243.226 157.118 243.435 157.307C243.264 157.297 243.088 157.292 242.91 157.288C242.147 157.268 241.35 157.248 240.823 156.774C240.284 156.291 239.894 155.1 239.652 154.357L239.651 154.357C239.631 154.296 239.613 154.239 239.595 154.185ZM258.534 147.95C258.637 146.654 258.615 145.402 258.571 144.102C257.033 143.064 255.059 142.861 255.001 145.246C254.947 147.479 256.524 149.199 257.95 150.755C258.134 150.956 258.316 151.155 258.492 151.352C258.634 150.742 258.594 150.048 258.554 149.359C258.526 148.877 258.498 148.397 258.534 147.95ZM256.151 123.157C256.117 123.288 256.082 123.436 256.047 123.59C255.809 124.64 255.49 126.045 254.168 125.525C252.973 125.054 252.684 123.153 252.681 122.093C252.68 121.223 252.823 119.625 254.038 119.573C255.531 119.508 256.065 122.152 256.151 123.157ZM245.412 99.4576C245.796 98.7782 246.251 97.9723 246.681 98.0755C246.48 97.6276 246.278 97.1797 246.077 96.7318C245.875 96.2822 245.673 95.8334 245.471 95.3838C245.412 95.6802 245.348 95.9775 245.284 96.2763C244.999 97.5951 244.709 98.9389 244.873 100.281C245.023 100.147 245.207 99.8206 245.412 99.4576ZM276.256 158.806C278.392 156.783 279.816 157.521 282.144 158.726C282.256 158.785 282.372 158.844 282.489 158.905C283.066 159.202 283.622 159.332 284.178 159.462C284.611 159.563 285.043 159.664 285.486 159.845C285.991 160.05 286.308 160.583 286.608 161.085C286.903 161.581 287.182 162.049 287.608 162.149C286.566 162.258 285.53 162.4 284.493 162.542C281.574 162.94 278.663 163.338 275.694 163.013C275.834 162.445 275.818 161.871 275.801 161.303C275.777 160.449 275.753 159.606 276.256 158.806ZM275.272 151.948C277.85 151.815 278.537 147.843 278.519 145.859C278.575 144.42 278.197 142.565 277.091 141.537C276.391 140.886 274.774 139.862 273.803 140.015C271.167 140.428 270.502 145.239 270.757 147.251C270.99 149.086 273.2 152.055 275.272 151.948Z" fill="#1E1E1E"/>
<path fill-rule="evenodd" clip-rule="evenodd" d="M236.605 62.8175C236.154 63.0201 237.014 64.5345 237.147 64.8123C237.497 65.5375 237.923 67.0361 238.749 66.6235C238.034 65.3549 237.32 64.0861 236.605 62.8175ZM130.82 150.682C130.217 150.415 129.411 152.715 129.304 153.182C129.005 154.483 129.255 155.358 130.297 156.2C129.866 154.339 130.382 152.486 130.82 150.682ZM269.927 52.1854C269.177 51.212 268.095 49.4049 266.58 50.3616C265.983 50.7396 265.522 51.9513 265.153 52.5432C264.574 53.4725 264.014 54.3671 263.573 55.3675C264.322 55.0596 264.763 54.3901 265.432 54.0241C265.889 53.7742 266.307 53.7501 266.747 53.5679C267.722 53.1654 269.056 52.7707 269.927 52.1854ZM147.738 148.088C148.143 149.677 148.518 151.26 148.832 152.868C149.044 153.957 149.757 155.494 149.385 156.56C150.348 156.43 151.313 156.3 152.277 156.17C151.562 154.543 151.185 152.805 150.973 151.047C150.843 149.97 151.01 149.664 150.199 149.064C149.571 148.6 148.466 148.377 147.738 148.088ZM142.407 87.309C144.26 89.1656 145.88 91.2812 147.85 93.0096C148.873 93.9088 149.922 94.7822 150.972 95.6489C151.863 96.3832 153.279 98.0034 154.438 98.2282C154.581 97.6362 154.92 96.6663 154.829 96.0593C155.167 95.7097 155.062 95.4541 154.514 95.2925C154.179 95.0344 153.847 94.7722 153.519 94.5049C152.231 93.4292 151.011 92.2612 149.791 91.1097C148.578 89.9666 147.455 88.7693 146.401 87.4772C145.847 86.797 145.522 86.1143 144.612 85.9145C143.531 85.6772 143.171 86.5206 142.407 87.309ZM179.443 156.22C179.39 157.228 181.87 157.847 182.622 157.907C184.658 158.071 185.98 157.178 186.681 155.416C188.14 151.749 190.474 148.52 191.451 144.664C191.741 143.52 191.992 143 190.96 142.417C190.536 142.178 189.433 141.644 188.971 141.949C188.534 142.239 188.174 143.542 187.892 144.015C187.445 144.768 186.935 145.483 186.45 146.212C184.176 149.617 181.884 152.934 179.443 156.22ZM150.025 105.728L159.542 111.173C159.939 109.802 160.121 108.372 160.493 106.991C160.758 106.009 161.439 104.622 161.397 103.76C161.333 102.473 160.336 100.764 159.901 99.537C159.36 98.0084 158.819 96.479 158.278 94.9504C157.544 95.6514 156.7 96.1418 156.692 97.0551C156.687 97.5779 157.035 97.9035 156.833 98.4954C156.691 98.9101 156.089 99.4612 155.798 99.7701C154.948 100.672 154.975 100.718 154.083 99.8734C152.73 101.825 151.378 103.776 150.025 105.728ZM160.495 131.256C160.632 129.944 160.806 128.687 161.101 127.4C161.283 126.609 162.048 124.985 161.796 124.24C161.611 123.693 160.511 123.217 160.082 122.919C158.842 122.057 157.632 121.151 156.405 120.271C155.329 119.5 154.237 118.748 153.18 117.948C152.203 117.209 151.464 116.289 150.28 115.972C149.245 115.695 147.931 115.875 146.858 115.84C145.419 115.792 143.958 115.776 142.519 115.846C137.693 116.083 132.287 115.745 127.644 117.092C125.45 117.728 124.035 118.103 122.809 120.182C121.39 122.588 120.178 125.087 119.146 127.685C118.995 128.064 118.655 128.611 118.668 129.026C118.692 129.818 118.975 129.635 119.735 130.087C120.554 130.574 121.357 131.153 122.141 131.703C123.484 132.644 125.151 133.627 126.544 134.362C128.22 135.245 129.909 136.038 131.614 136.927C132.695 137.491 133.813 137.952 134.873 138.572C136.023 139.245 137.311 139.436 138.552 139.962C142.392 141.589 146.109 143.092 149.878 144.949C153.556 146.76 157.277 148.291 161.041 149.889C165.905 151.954 170.721 153.865 175.794 155.293C176.167 155.398 176.947 155.766 177.314 155.75C178.098 155.713 178.276 155.139 178.747 154.493C179.673 153.224 180.565 151.929 181.451 150.631C183.372 147.815 185.25 144.968 187.319 142.256C181.457 140.62 176.023 137.601 170.871 134.503C170.652 135.119 170.478 136.486 169.774 136.692C168.905 136.948 168.273 135.742 167.883 135.188C167.514 136.107 166.883 139.207 165.703 139.138C164.072 139.045 164.36 136.477 164.157 135.457C163.257 136.653 162.216 138.028 160.994 136.189C160.147 134.915 160.241 132.678 160.495 131.256ZM228.401 116.609C227.646 116.372 226.895 116.163 226.156 115.898C225.961 115.486 225.639 115.36 225.188 115.522C224.818 115.556 224.459 115.51 224.109 115.385C222.566 115.121 220.856 114.779 219.38 114.333C218.067 113.936 216.828 113.586 215.492 113.288C214.7 113.111 211.169 112.111 210.647 112.7C210.487 112.881 210.762 115.075 210.724 115.466C210.655 116.161 210.621 117.306 210.18 117.885C210.011 118.107 209.369 118.353 209.136 118.526C208.381 119.088 207.683 119.786 206.932 120.369C205.292 121.641 203.695 122.961 202.021 124.19C200.839 125.059 199.485 125.49 198.171 126.122C199.106 126.289 200.935 125.389 201.878 125.11C203.1 124.748 204.299 124.347 205.549 124.015C208.111 123.337 210.737 122.57 213.341 121.847C214.94 121.404 216.629 120.942 218.18 120.354C218.867 120.092 219.408 119.486 219.862 120.103C220.225 120.596 219.786 121.244 219.507 121.609C217.881 123.738 213.467 124.256 211.103 125.139C208.436 126.135 205.805 127.185 203.059 127.885C199.852 128.703 196.371 129.328 193.382 130.764C190.903 131.955 188.094 132.417 185.458 133.116C182.983 133.772 180.047 133.904 177.707 135.019C178.718 135.817 180.213 136.233 181.391 136.77C182.833 137.427 184.29 138.027 185.716 138.724C186.324 139.02 186.959 139.46 187.573 139.707C188.353 140.02 188.253 139.855 189.058 139.792C190.312 139.693 192.003 139.467 193.021 140.38C194.249 141.482 193.472 142.688 193.651 144.036C193.775 144.96 193.838 144.812 194.864 144.953C195.807 145.083 196.75 145.234 197.681 145.436C198.83 145.686 200.006 146.104 201.126 146.464C202.862 147.023 203.051 147.681 204.86 146.959C210.014 144.905 215.343 143.215 220.53 141.27C222.919 140.375 225.317 138.647 227.566 137.35C230.451 135.684 233.059 133.883 235.013 131.111C235.903 129.847 236.831 127.712 236.645 126.143C236.477 124.741 235.44 123.18 234.771 121.974C233.917 120.434 233.165 119.836 231.858 118.813C230.95 118.102 229.547 116.6 228.401 116.609ZM171.01 128.531C171.09 129.306 170.637 132.499 171.086 132.99C171.852 133.83 173.731 132.849 174.459 132.599C176.821 131.787 179.567 131.964 181.973 131.321C184.307 130.697 186.589 129.888 188.936 129.252C190.195 128.911 191.389 128.376 192.628 127.969C194.006 127.517 195.545 127.269 196.823 126.589C196.665 126.195 191.134 127.142 190.505 127.193C188.322 127.371 186.266 127.034 184.114 126.637C179.368 125.764 174.895 123.692 170.209 122.349C170.429 124.511 176.51 124.941 175.785 127.451C175.584 128.15 172.863 129.293 171.964 128.854C170.135 127.962 172.372 126.707 173.282 126.394C171.895 125.599 170.568 124.736 169.303 123.755C167.947 122.706 167.364 121.233 166.638 119.714C165.119 116.537 161.526 114.689 158.735 112.712C155.717 110.574 152.503 108.755 149.487 106.622C148.949 106.241 148.697 106.416 148.508 105.721C148.305 104.976 149.049 104.03 149.41 103.462C150.358 101.968 151.463 100.555 152.715 99.3047C151.1 98.2049 149.354 97.2965 147.84 96.051C146.304 94.7888 145.032 93.2477 143.678 91.8024C141.513 96.5148 138.48 100.886 136.098 105.507C135.157 107.332 134.659 110.092 136.091 111.862C137.596 113.723 140.404 112.998 142.531 113.097C144.774 113.201 146.821 113.456 149.034 114.092C150.035 114.38 150.946 114.295 151.908 114.758C153.037 115.3 154.147 115.997 155.22 116.64C157.331 117.904 159.304 119.487 161.298 120.93C162.115 121.522 166.55 125.03 163.043 124.488C163.043 127.771 162.467 131.133 162.166 134.4C162.998 133.406 163.591 132.396 164.094 131.202C164.393 130.491 164.397 128.679 165.395 129.108C166.895 129.754 165.727 134.504 165.727 135.789C166.098 135.069 166.359 134.295 166.626 133.533C166.829 132.956 167.082 131.32 167.506 130.933C168.922 129.638 169.12 133.17 169.12 133.908C169.579 132.606 169.664 131.216 169.71 129.84C169.728 129.297 169.594 128.452 169.731 127.927C169.959 127.052 169.932 127.109 170.848 126.739C170.902 127.337 170.956 127.934 171.01 128.531ZM214.765 156.234C214.877 157.345 215.307 158.149 214.577 159.148C215.988 159.048 217.376 158.923 218.79 158.959C219.924 158.988 221.621 159.247 222.68 158.761C223.111 158.563 223.258 158.904 223.48 158.526C223.69 158.166 223.195 156.973 223.136 156.676C222.85 155.256 222.711 153.798 222.452 152.369C222.274 151.386 221.751 149.454 222.409 148.526C223.376 147.159 223.801 149.083 224.054 149.938C224.883 152.753 224.835 155.427 224.835 158.32C226.084 158.32 227.726 157.774 228.931 157.444C230.593 156.99 232.368 156.523 233.979 155.93C235.498 155.37 236.835 154.554 237.796 153.24C238.514 152.256 240.107 149.832 239.711 148.744C239.226 147.412 236.913 146.496 235.678 146.349C234.075 146.159 232.433 146.482 230.792 146.616C229.037 146.761 227.334 147.153 225.597 147.341C223.91 147.523 221.646 148.087 220.007 147.665C219.965 148.339 220.528 149.246 220.725 149.933C220.982 150.833 221.212 151.741 221.421 152.653C221.645 153.631 223.029 157.143 221.77 157.845C220.291 158.67 219.585 155.139 219.401 154.279C218.962 152.228 218.585 150.179 219.045 148.117C217.157 147.776 214.881 148.282 212.935 148.416C213.66 150.972 214.128 153.648 214.765 156.234ZM133.473 157.346C134.129 157.638 135.031 157.481 135.744 157.537C136.859 157.625 137.986 157.826 139.108 157.79C140.821 157.736 142.616 157.519 144.33 157.323C143.352 155.559 142.759 153.889 142.636 151.867C142.593 151.141 142.208 146.636 143.547 146.829C144.193 146.922 144.056 150.768 144.182 151.476C144.364 152.504 144.599 153.557 144.885 154.563C145.093 155.293 145.8 156.386 145.619 157.175C146.483 157.035 147.347 156.895 148.211 156.755C147.539 155.414 147.048 154.213 146.797 152.718C146.675 151.997 146.753 151.098 146.517 150.413C146.369 149.981 146.029 149.575 145.984 149.212C145.932 148.794 146.39 147.768 146.22 147.397C146.054 147.032 144.896 146.694 144.49 146.493C143.372 145.939 142.717 145.798 141.464 146.117C139.047 146.731 135.239 147.168 133.436 148.825C131.651 150.468 131 156.007 133.473 157.346ZM239.034 77.2893C239.703 77.2137 240.366 77.167 241.038 77.1323C240.056 75.7488 239.163 74.3028 238.348 72.8144C237.949 72.0851 237.572 71.3443 237.211 70.5954C236.797 69.7361 236.808 69.175 235.908 69.0043C234.661 68.7679 232.994 69.2401 231.711 69.1864C230.72 69.1447 228.495 68.2119 227.697 68.55C228.425 70.0426 227.841 72.3647 227.869 73.9713C227.898 75.569 227.699 77.1135 227.418 78.689C229.118 78.689 231.247 78.1017 232.963 77.8393C234.961 77.5338 236.998 77.518 239.034 77.2893ZM212.044 159.309C212.698 159.225 213.321 159.199 213.982 159.199C212.492 156.783 211.368 154.081 211.355 151.202C211.353 150.826 211.806 148.662 211.657 148.482C211.364 148.132 210.154 148.408 209.822 148.441C208.465 148.577 206.958 148.566 205.68 149.056C204.799 149.393 204.789 149.189 204.439 150.227C204.232 150.841 204.083 151.542 204.078 152.187C204.07 153.492 204.486 155.015 205.023 156.19C205.535 157.308 206.343 158.506 207.455 159.107C208.736 159.799 210.541 159.387 212.044 159.309ZM225.586 69.5533C225.329 68.5907 225.44 68.808 224.584 68.6885C224.403 68.6635 222.442 68.7042 222.329 68.8192C222.199 68.9519 222.249 70.9117 222.232 71.136C222.174 71.9047 222.088 72.6714 222.004 73.4377C221.664 76.5486 221.02 79.5601 220.537 82.6454C221.731 81.9041 223.457 82.9148 224.476 82.1124C225.282 81.4783 225.162 79.4495 225.222 78.5543C225.422 75.558 225.491 72.5543 225.586 69.5533ZM268.698 65.9203C268.59 66.0929 268.483 66.2655 268.375 66.4381C268.793 66.7055 271.233 63.9853 271.776 63.4985C272.498 62.8506 273.642 61.9852 273.969 61.0377C274.348 59.9366 273.975 58.1984 273.883 57.0599C273.817 56.245 273.957 55.1181 273.293 54.5489C272.682 54.0251 271.176 54.0391 270.453 54.1512C268.281 54.4875 266.975 56.2743 265.879 57.9769C266.992 57.84 270.916 56.0476 271.372 57.017C272.034 58.4253 267.913 59.6845 267.505 60.9202C268.349 61.2183 270.21 60.0621 269.686 61.9858C269.597 62.255 269.441 62.4779 269.219 62.6545C268.833 62.791 268.743 63.0482 268.945 63.4262C268.773 64.1797 268.808 65.133 268.698 65.9203ZM293.693 134.117C293.705 134.574 293.746 135.01 294.119 135.333C294.947 132.712 295.206 130.089 295.548 127.362C295.891 124.636 296.257 121.841 296.311 119.117C296.372 116.064 296.083 112.742 295.59 109.725C295.203 107.367 294.905 104.464 293.499 102.457C294.298 107.659 294.049 112.591 293.511 117.81C293.225 120.583 292.822 123.333 292.637 126.117C292.588 126.852 292.573 127.595 292.508 128.33C292.471 128.762 292.043 129.581 292.04 129.793C292.018 130.972 293.279 133.035 293.693 134.117ZM251.23 130.066C251.894 131.593 252.648 133.099 253.047 134.724C253.467 136.44 253.286 138.038 253.353 139.777C253.465 142.661 253.233 145.529 253.274 148.417C253.308 150.879 253.214 153.28 253.238 155.716C253.254 157.258 253.17 158.793 253.175 160.332C253.175 160.328 253.237 161.715 253.13 161.785C252.655 162.101 252.135 161.653 251.99 161.221L250.581 162.816C251.319 162.63 252.228 162.242 252.987 162.208C253.278 162.101 253.567 162.098 253.855 162.199C254.142 162.372 254.354 162.613 254.492 162.923C256.482 163.348 257.676 161.576 258.033 159.992C258.808 156.555 258.529 153.161 258.473 149.691C258.351 142.153 259.548 134.66 259.434 127.121C259.413 125.662 259.357 124.22 259.577 122.764C259.983 120.059 260.583 122.535 260.68 123.811C260.97 127.648 261.474 131.606 261.197 135.466C260.947 138.944 260.971 142.454 260.797 145.942C260.613 149.65 260.316 153.279 260.487 156.989C261.483 156.863 264.683 156.673 265.016 158.072C265.307 159.292 264.138 158.84 263.53 158.789C262.544 158.705 261.582 158.936 260.505 158.743C260.584 160.384 260.811 162.584 259.345 163.692C258.624 164.237 257.43 164.729 256.588 165.05C255.763 165.365 254.365 166.064 253.505 166.025C252.896 165.998 252.662 165.671 251.995 165.722C251.004 165.801 250.147 166.463 249.096 165.916C247.106 164.877 248.084 161.857 249.341 160.646C249.666 160.334 250.031 159.993 250.465 159.84C250.672 159.769 251.538 159.856 251.637 159.747C252.005 159.347 251.545 157.008 251.496 156.564C251.238 154.235 250.956 151.857 250.851 149.518C250.752 147.318 250.64 145.114 250.565 142.915C250.548 142.435 250.761 141.45 250.56 141.032C250.226 140.336 248.763 139.893 248.128 139.569C248.694 145.114 249.525 151.073 247.477 156.354C247.071 157.403 246.615 158.9 245.583 159.484C244.611 160.033 242.323 159.956 241.159 160.022C239.907 160.092 238.681 159.799 237.991 158.623C237.448 157.697 237.773 156.586 238.887 156.183C239.555 155.941 239.685 156.097 240.27 156.384C240.397 156.59 240.485 156.811 240.537 157.049H240.986C241.595 157.32 244.029 157.624 244.699 157.19C245.475 156.688 245.643 155.33 245.974 154.523C246.588 153.025 246.751 151.808 246.974 150.206C247.323 147.697 246.969 144.79 246.976 142.176C246.978 141.44 246.981 140.704 246.982 139.968C246.983 138.857 247.08 138.864 246.446 138.064C245.491 136.858 244.402 135.626 243.379 134.47C243.934 137.847 243.706 141.403 243.487 144.767C243.363 146.658 243.108 148.583 242.99 150.449C242.955 151.009 243.358 152.554 242.707 152.802C242.047 153.053 241.225 151.881 240.959 151.458C239.504 154.363 237.767 157.165 234.765 158.669C233.22 159.441 231.613 159.79 229.928 160.093C228.367 160.374 226.925 160.887 225.386 161.128C222.201 161.629 219.268 161.699 216.062 161.59C213.039 161.487 210.144 162.046 207.13 161.342C205.953 161.067 204.764 160.564 203.96 159.663C203.521 159.171 203.327 158.397 202.885 157.944C202.785 157.357 202.441 157.177 201.851 157.401C201.48 157.417 201.11 157.406 200.742 157.364C197.719 157.205 194.36 157.382 191.431 156.518C190.319 156.19 189.077 155.65 189.632 154.258C190.117 153.041 191.455 153.41 192.552 153.517C195.739 153.826 198.876 154.389 202.108 154.673C202.004 152.983 202.094 151.259 202.756 149.678C200.513 149.396 198.188 148.972 196.054 148.255C195.396 148.033 194.74 147.804 194.086 147.567C193.009 147.178 193.233 147.077 192.608 147.757C191.825 148.612 191.344 150.395 190.776 151.428C190.137 152.59 189.523 153.739 188.985 154.952C188.475 156.1 188.095 157.638 187.318 158.627C185.609 160.804 181.662 160.992 179.339 160.137C178.201 159.719 177.791 159.653 177.101 158.633C176.346 157.515 176.158 157.45 174.766 157.297C172.253 157.024 169.881 156.392 167.527 155.521C165.039 154.601 162.486 153.882 160.005 152.889C157.683 151.958 155.44 151.022 153.037 150.296C152.752 152.108 153.934 154.153 153.934 156.022C155.331 155.882 156.634 155.759 158.02 155.537C158.514 155.458 161.626 154.758 161.93 155.171C163.197 156.89 157.436 157.698 156.536 157.925C153.65 158.654 150.709 159.331 147.806 159.893C144.842 160.469 141.954 161.041 138.945 161.144C133.854 161.319 126.833 161.024 127.076 154.333C127.172 151.711 128.251 148.865 130.318 147.155C131.602 146.091 133.206 145.507 134.777 145.025C135.358 144.847 138.416 144.431 138.509 144.202C137.648 143.584 136.174 143.424 135.152 142.947C134.177 142.493 133.148 142.324 132.15 141.866C130.156 140.951 128.23 139.833 126.387 138.702C124.92 137.803 123.438 136.81 122.088 135.74C121.015 134.89 119.988 134.074 119.13 133.102C118.682 132.594 117.887 132.145 117.528 131.707C116.265 130.17 117.597 127.112 118.134 125.323C118.919 122.707 119.967 119.925 121.512 117.66C122.933 115.576 124.517 114.172 127.066 113.684C129.418 113.234 131.785 113.091 134.191 112.965C133.786 111.426 133.217 110.34 133.362 108.652C133.498 107.06 134.301 105.478 134.932 104.029C136.104 101.334 137.21 98.6961 138.812 96.2142C139.694 94.8504 140.683 93.5566 141.646 92.2495C141.8 92.0389 142.765 91.0747 142.727 90.8033C142.69 90.5336 141.723 89.7126 141.575 89.5245C140.579 88.2598 139.891 86.8986 141.059 85.5456C141.669 84.8396 143.461 83.4151 144.323 84.3109C145.256 82.4259 146.887 81.1404 148.157 79.5365C149.741 77.5365 151.252 75.5059 152.735 73.4111C154.21 71.3252 155.415 69.0844 157.371 67.4035C159.552 65.5303 161.603 65.6923 164.281 66.4931C164.434 65.4598 164.646 65.5973 165.645 65.2523C166.401 64.9911 167.136 64.6812 167.879 64.3863C168.669 64.0727 169.469 63.8947 170.277 63.6481C171.353 63.3198 171.515 63.427 171.69 62.0289C171.901 60.3395 171.179 58.5534 170.712 56.962C170.483 56.1769 170.323 55.1996 169.805 54.6714C169.337 54.1936 168.507 53.9762 167.995 53.448C163.583 48.8977 163.514 39.182 168.213 34.9531C169.126 34.1311 169.88 33.0252 171.017 32.4702C172.265 31.8606 173.912 31.3677 175.286 31.0805C178.121 30.4887 181.298 30.6766 183.539 32.6698C184.644 33.6528 185.317 35.2153 185.694 36.611C186.054 37.9441 185.977 40.1975 184.613 38.1372C183.753 36.8377 183.006 35.5123 181.55 34.8695C180.249 34.2952 178.66 33.9851 177.243 34.107C173.903 34.394 171.195 35.3754 168.883 37.8491C166.326 40.5842 166.196 44.9509 166.748 48.4288C167.233 47.4002 167.562 45.7713 168.923 45.5749C170.058 45.4112 171.847 46.8608 171.238 48.1087C168.475 47.4039 167.667 51.5849 170.056 51.8366C170.78 51.9128 171.696 50.6243 172.362 50.9244C173.607 51.4853 171.938 53.4179 171.609 54.0544C171.434 54.162 171.259 54.2697 171.084 54.3775C171.257 54.778 171.43 55.1779 171.606 55.577C171.819 56.0859 172.022 56.596 172.209 57.1152C172.664 58.3786 173.137 59.6813 173.411 60.9974C173.69 62.3356 173.834 63.8983 173.175 65.1554C172.451 66.5373 171.768 66.3673 171.211 65.0529C169.754 65.9719 168.289 66.9519 166.576 67.3145C168.372 70.33 170.697 72.9223 174.194 73.8709C177.158 74.6748 180.889 74.6453 183.716 73.3154C186.65 71.9353 188.265 68.7098 187.916 65.5006C187.803 64.4613 187.198 60.8513 188.637 63.4627C189.425 64.8948 189.483 67.2181 189.303 68.7885C188.443 76.3008 180.832 79.1113 174.269 77.3029C170.902 76.375 168.476 73.8915 166.67 70.968C166.249 70.2863 165.863 69.5827 165.487 68.8754C165.336 68.5927 165.204 68.198 165.003 67.9501C164.217 66.9785 164.989 67.52 164.154 67.3982C162.862 67.2102 160.828 68.2007 159.868 68.9854C157.264 71.1143 155.821 74.5199 153.823 77.2031C151.695 80.0594 148.992 82.6017 146.281 84.8804C149.348 88.0234 152.414 91.1663 155.48 94.3084C156.114 93.6066 157.318 92.0031 157.487 91.0656C157.585 90.5152 157.142 88.7061 158.506 89.5112C159.426 90.0557 159.776 92.3827 160.062 93.3352C160.506 94.8063 161.253 96.1917 161.736 97.647C162.631 100.348 163.735 103.025 164.652 105.745C165.025 106.851 166.088 108.223 165.067 109.16C163.513 110.583 163.052 107.781 162.641 106.711C162.068 107.508 162.142 108.8 161.846 109.729C161.666 110.297 161.117 111.181 161.135 111.74C161.166 112.696 162.034 112.981 162.816 113.515C164.271 114.509 165.764 115.48 167.096 116.638C167.652 117.121 168.163 117.61 168.568 118.231C168.923 118.774 169.03 119.997 169.421 120.375C169.933 120.867 171.825 120.524 172.825 120.631C174.495 120.811 176.186 121.404 177.806 121.832C180.673 122.587 183.622 123.673 186.625 124.077C189.574 124.473 192.342 124.276 195.281 123.749C196.886 123.46 198.61 123.116 200.075 122.344C201.763 121.454 203.259 120.031 204.835 118.956C205.54 118.475 206.262 118.02 206.984 117.564C207.948 116.954 207.696 117.087 207.758 116.118C207.832 114.998 208.299 112.858 207.551 111.861C207.238 111.444 206.28 111.14 205.829 110.837C205.172 110.396 204.584 109.884 203.88 109.53C203.113 109.142 203.09 109.449 202.734 108.5C202.41 107.637 202.197 106.734 201.9 105.862C200.54 101.877 200.189 97.8294 199.626 93.6682C199.364 91.735 198.722 89.1049 199.449 87.2216C200.46 84.6032 201.307 88.2656 201.52 89.2039C202.485 87.5496 203.04 85.7096 204.044 84.0761C204.63 83.1238 204.916 82.6371 205.247 81.5937C205.38 81.1711 205.433 80.8201 205.716 80.4691C206.314 79.7267 206.402 80.1498 207.023 80.1316C208.978 80.0743 210.899 80.1246 212.855 80.2152C213.937 80.2653 215.018 80.2918 216.107 80.2878C216.638 80.2858 217.175 80.2599 217.704 80.2903C217.99 80.2874 218.275 80.3086 218.558 80.3543C219.141 80.6269 219.364 80.392 219.226 79.6494C219.734 78.5856 219.7 76.8881 219.88 75.7276C220.061 74.5594 220.23 73.3892 220.381 72.2166C220.461 71.5898 221.14 69.2247 220.78 68.7098C220.423 68.1992 218.562 68.3137 218.011 68.2221C214.349 67.6131 210.944 66.1036 207.519 64.8668C205.834 64.2581 204.232 63.436 202.616 62.6892C201.774 62.3003 200.978 61.4995 200.091 61.2502C198.971 60.9355 197.484 61.4386 196.369 61.628C194.242 61.989 192.191 62.3051 190.034 62.4226C189.271 62.4641 187.821 62.678 187.133 62.1538C185.752 61.1011 187.325 60.4855 188.228 60.3526C192.222 59.7649 196.204 59.4271 200.229 59.1817C200.417 59.1703 201.109 59.0298 201.338 59.1024C201.862 59.268 201.651 59.46 201.965 59.6307C202.547 59.947 203.211 60.18 203.949 60.3762C206.057 60.9363 208.179 61.8759 210.294 62.6144C214.099 63.943 218.645 66.0613 222.451 65.6889C223.39 65.597 224.163 65.4796 225.144 65.5748C226.295 65.6865 226.966 66.2766 227.849 66.4482C229.032 66.6779 230.726 66.5053 231.971 66.5493C233.159 66.5915 234.348 66.6466 235.537 66.6466C234.493 64.5468 233.858 62.5751 233.271 60.3199C232.951 59.09 232.47 57.9728 232.678 56.6776C232.776 56.0663 233.021 55.4918 233.288 54.9395C233.689 54.1059 233.803 54.2803 233.946 53.357C234.143 52.0864 233.86 50.7466 234.015 49.4722C234.173 48.1642 235.161 46.9985 235.271 45.7481C235.33 45.0828 234.958 44.5398 235.069 43.8222C235.168 43.1804 235.549 42.5075 235.89 41.9671C236.684 40.7079 237.652 39.9939 238.995 39.4809C240.074 39.0686 241.451 38.6904 242.542 39.358C243.655 40.0392 243.574 41.41 244.108 42.4103C245.254 44.561 247.898 46.4831 250.007 47.5816C251.944 48.5906 254.03 49.228 256.107 49.8861C257.371 50.2865 258.67 50.5722 259.912 51.0299C260.807 51.3594 262.264 52.1586 263.175 51.6731C263.969 51.2499 264.895 49.9587 265.68 49.3591C266.599 48.6578 267.824 47.9732 268.981 48.5842C270.138 49.195 270.043 51.4464 270.943 51.8697C271.256 52.0172 272.188 51.5851 272.615 51.6532C273.306 51.763 273.781 52.1906 274.195 52.717C275.74 54.6839 276.219 57.8039 276.287 60.2287C276.321 61.4398 276.292 62.9461 275.552 63.9744C274.69 65.1739 273.058 65.2036 271.951 66.0476C271.066 66.7228 270.439 67.8264 269.54 68.5458C268.987 68.9892 268.773 68.6487 268.544 69.3396C268.395 69.789 268.696 70.6657 268.785 71.1005C269.335 73.7829 270.366 76.257 271.344 78.8123C271.805 80.0163 272.196 81.2206 272.406 82.4967C272.544 83.3343 272.385 84.0661 272.452 84.8712C272.499 85.4449 272.742 85.9403 272.689 86.5281C272.576 87.7736 271.9 88.8742 271.469 89.9691C270.98 91.2179 271.652 93.381 272.146 94.6723C273.329 97.7661 274.993 100.892 276.471 103.865C277.922 106.785 279.002 109.895 280.693 112.701C282.335 115.425 284.268 118.093 286.138 120.669C287.177 122.103 288.28 123.467 289.222 124.97C289.428 125.298 290.834 128.025 291.199 127.93C290.752 123.173 291.204 118.225 291.404 113.47C291.653 107.519 290.897 102.128 289.222 96.4465C288.832 95.1185 288.483 93.7598 288.207 92.4027C288.015 91.4519 287.471 90.6709 288.806 91.0864C291.017 91.7741 292.964 95.9519 294.089 97.7703C296.606 101.842 298.71 107.273 298.992 112.05C299.27 116.739 299.031 121.225 298.445 125.844C298.156 128.123 297.689 130.663 296.975 132.842C296.608 133.964 296.168 135.124 295.679 136.199C295.472 136.652 295.019 137.165 294.941 137.663C294.817 138.453 295.396 139.52 295.541 140.3C296.014 142.854 296.123 145.501 295.962 148.093C295.875 149.482 295.683 150.726 295.23 152.033C294.652 153.698 294.921 154.97 295.161 156.687C295.418 158.525 295.665 162.701 293.756 163.745C293.621 163.732 293.485 163.717 293.35 163.703C293.01 163.309 292.707 163.333 292.442 163.773C291.948 163.935 291.466 164.349 290.946 164.528C289.738 164.943 288.436 164.968 287.177 165.15C284.713 165.507 282.258 166.137 279.837 166.214C276.97 166.303 273.98 166.191 271.177 165.688C270.598 165.584 269.921 165.309 269.341 165.257C268.555 165.185 268.003 165.708 267.192 165.585C265.934 165.395 265.138 164.062 265.056 162.971C264.794 159.492 266.723 157.897 269.875 157.279C267.838 154.362 265.493 151.968 264.951 148.222C264.417 144.535 265.575 140.268 267.676 137.315C269.693 134.479 273.134 132.583 276.684 133.303C278.331 133.637 286.103 135.933 284.601 138.537C284.268 137.346 282.219 137.576 281.229 137.404C279.587 137.118 277.944 136.688 276.278 136.777C273.001 136.951 269.834 138.891 268.247 141.827C266.417 145.212 267.252 148.59 269.455 151.479C271.468 154.122 273.545 156.899 276.253 158.806C275.73 159.64 275.919 159.901 274.879 159.752C274.165 159.65 273.497 159.092 272.776 158.953C271.279 158.666 268.924 159.893 267.999 161.119C267.453 161.844 267.473 162.202 268.48 162.648C269.224 162.978 270.394 162.808 271.192 162.879C273.179 163.056 275.203 163.116 277.195 163.109C280.643 163.096 283.851 162.543 287.264 162.185C288.777 162.026 290.36 162.209 291.839 161.652C293.844 160.898 293.353 158.682 293.093 156.887C292.836 155.109 293.098 153.731 293.377 151.97C293.498 151.205 293.724 150.322 293.564 149.553C293.373 148.638 293.033 148.233 293.076 147.213C293.231 143.584 292.776 139.762 291.815 136.259C289.727 128.65 284.627 122.646 280.375 116.179C279.174 114.353 277.911 112.622 276.955 110.644C276.049 108.77 275.426 106.788 274.526 104.909C272.543 100.767 270.663 96.5006 269.504 92.0455C268.191 92.5625 266.777 93.3227 265.369 93.505C263.775 93.7123 262.07 92.4235 261.064 91.2887C258.77 88.7011 258.247 85.1926 258.419 81.8582C258.47 80.8712 258.53 79.8764 258.708 78.9026C258.823 78.2706 259.565 76.7408 259.396 76.152C259.215 75.5217 258.159 74.9739 257.835 74.3497C257.421 73.5552 257.374 72.5324 257.396 71.6559C257.416 70.8557 257.858 66.9378 259.126 68.5392C259.852 69.4566 258.791 72.9155 259.528 73.3864C260.191 73.8099 261.105 73.2923 261.792 74.2607C262.535 75.3072 262.137 76.5971 261.876 77.7116C261.339 80.0163 260.833 82.5051 260.847 84.8721C260.859 87.0276 261.245 89.7526 263.598 90.6243C264.787 91.0647 265.69 90.7617 266.577 89.9416C266.78 89.7077 266.988 89.477 267.199 89.2506C267.393 88.9167 267.691 88.8751 268.092 89.1257C268.39 88.8901 268.83 87.2582 268.978 86.8936C270.802 82.4237 267.928 77.2915 266.874 72.9057C266.229 70.2231 265.667 67.5324 266.972 64.9434C267.182 64.5243 267.764 64.16 267.416 63.5587C267.324 63.4006 266.446 63.3264 266.237 63.1426C265.56 62.5443 265.701 61.4288 265.701 60.63C264.134 61.1135 263.682 59.8938 263.886 58.3989C262.717 58.5843 261.906 58.9419 261.473 57.5889C261.09 56.389 261.669 55.1654 262.053 54.0474C256.645 53.4675 250.805 52.7244 246.495 48.9909C245.433 48.0702 244.549 46.9115 243.813 45.711C243.68 45.4939 243.053 43.9657 242.845 43.886C242.228 43.6488 241.71 44.8571 241.162 45.1564C240.674 45.4222 239.981 45.5687 239.439 45.7306C238.929 45.8832 237.132 45.9136 236.814 46.1785C236.017 46.8407 236.079 50.6694 236.073 51.5581C236.052 54.6184 236.734 57.6682 237.997 60.4546C239.186 63.0788 241.006 66.6877 243.384 68.4051C243.985 68.8392 244.526 69.0644 245.288 69.0285C245.832 69.003 246.371 68.6218 246.938 68.82C248.372 69.322 247.859 70.3191 246.757 70.7906C243.606 72.1388 240.951 69.175 239.13 67.1044C238.596 69.5611 241.07 72.4682 242.378 74.4726C243.213 75.75 244.037 77.0287 244.831 78.3322C245.407 79.2789 246.54 81.0272 244.528 80.2959C243.557 85.3916 240.894 89.8484 239.534 94.8005C238.138 99.8833 236.921 105.688 236.921 110.982C237.984 110.241 238.52 106.867 239.95 109.45C240.105 109.729 240.056 110.191 240.26 110.435C240.543 110.773 240.881 110.679 241.314 110.92C241.999 111.301 242.441 112.062 241.828 112.722C242.617 112.538 243.443 112.632 243.614 113.565C243.709 114.089 242.942 116.516 242.37 116.715C240.626 117.318 238.692 113.835 238.219 112.726C237.129 113.821 235.874 114.662 234.869 112.892C234.121 111.573 234.556 109.578 234.661 108.142C234.874 105.249 235.152 102.429 235.569 99.5636C236.351 94.1919 238.336 89.4146 240.774 84.5798C241.445 83.2491 242.189 81.8869 242.789 80.5253C243.693 78.4709 242.279 78.9556 240.896 79.2538C238.186 79.8385 235.348 80.2922 232.61 80.4992C231.181 80.6072 229.35 80.6716 227.977 81.0849C227.012 81.3755 227.177 81.1749 226.789 82.2096C226.616 82.6727 226.421 83.1651 226.114 83.5616C224.554 85.5848 220.513 85.2459 218.281 85.0952C218.416 84.2418 218.55 83.3884 218.69 82.5364C216.973 82.9403 214.932 83.2215 213.162 83.2009C212.209 83.19 211.196 83.0447 210.246 82.9655C209.546 82.9071 208.217 82.4102 207.558 82.6035C206.793 82.8278 205.637 85.5931 205.2 86.4848C204.38 88.1599 202.913 90.0207 202.395 91.7841C201.935 93.3468 202.873 96.0444 203.167 97.6004C203.592 99.85 203.98 102.103 204.693 104.284C205.21 105.865 205.805 108.046 207.392 108.834C208.973 109.62 210.11 110.062 211.821 109.903C214.834 109.621 218.041 110.084 221.015 110.67C224.079 111.273 226.884 111.545 229.793 112.621C236.391 115.06 240.593 122.577 238.106 129.463C236.674 133.423 234.317 136.367 230.86 138.817C229.097 140.065 227.016 141.078 225.084 142.04C224.198 142.482 223.325 143.018 222.422 143.41C221.761 143.697 220.626 144.358 219.908 144.43C220.705 144.809 221.409 144.454 222.239 144.336C223.411 144.17 224.608 144.134 225.785 143.988C227.617 143.762 229.421 143.59 231.254 143.363C232.818 143.168 234.583 143.1 236.137 143.323C236.888 143.431 238.018 143.644 238.687 144.006C239.213 144.291 239.695 144.947 240.26 145.272C240.882 142.716 240.592 139.565 240.621 136.939C240.644 134.795 240.74 132.698 240.942 130.564C241.168 128.177 239.708 125.463 239.17 123.125C238.665 120.937 237.321 118.165 237.816 115.881C238.44 113.003 240.072 118.174 240.296 118.913C240.999 121.227 241.815 123.485 242.593 125.771C243.519 128.491 244.452 131.126 245.801 133.674C246.923 135.795 248.214 138.282 250.521 139.316C250.33 136.198 250.119 133.31 248.823 130.435C247.594 127.709 245.72 125.284 244.902 122.363C244.495 120.911 244.435 119.426 244.415 117.927C244.401 116.918 244.447 115.562 245.529 116.649C246.386 117.511 246.553 120.263 246.928 121.424C247.109 121.983 247.36 122.497 247.56 123.04C247.649 123.284 248.255 124.478 248.255 124.637C248.879 126.523 250.26 128.331 251.23 130.066Z" fill="black"/>
<path fill-rule="evenodd" clip-rule="evenodd" d="M185.005 61.3395C185.064 62.0697 185.488 63.9623 184.946 64.5402C184.228 65.3069 183.886 64.3207 183.576 63.5432C182.926 61.9183 182.603 58.772 183.887 57.418C185.227 56.004 187.874 55.9659 189.304 54.5577C189.878 53.9921 189.823 54.1102 189.773 53.2258C189.744 52.7265 189.422 52.063 189.266 51.6143C188.86 50.448 188.416 49.2959 187.991 48.1364C187.249 48.4746 186.183 49.5178 185.452 48.6434C184.777 47.8351 185.9 46.5104 186.682 46.2742C186.274 45.3807 184.35 45.5459 183.983 44.2336C183.665 43.0931 184.58 43.5463 184.78 43.0971C185.015 42.5685 184.533 41.8539 184.781 41.3668C185.643 39.6757 186.597 42.7852 187.026 43.3403C187.824 44.3725 189.216 44.598 189.338 46.1595C189.413 47.1208 189.341 47.5678 189.737 48.5119C190.101 49.3811 190.534 50.2145 190.84 51.1089C191.3 52.4565 192.01 54.9089 191.111 56.2139C190.352 57.3145 188.51 58.1536 187.312 58.6242C186.713 58.8597 185.881 59.0033 185.396 59.4621C184.763 60.0606 184.96 60.4285 185.005 61.3395Z" fill="black"/>
<path fill-rule="evenodd" clip-rule="evenodd" d="M247.233 102.089C247.097 101.873 246.959 101.659 246.823 101.443C245.875 102.456 244.825 102.872 243.868 101.585C242.881 100.261 243.252 98.275 243.636 96.828C243.833 96.0836 244.831 93.1488 245.471 95.3843C245.611 95.878 245.139 96.977 245.054 97.4599C244.886 98.4073 244.754 99.3165 244.872 100.281C245.983 99.2865 246.527 96.7639 247.655 99.384C248.064 100.333 248.109 101.897 249.198 100.455C249.779 99.6845 249.816 98.2617 250.088 97.3541C251.944 97.7979 251.606 100.544 250.986 101.882C250 104.012 248.658 103.326 247.233 102.089Z" fill="black"/>
<path fill-rule="evenodd" clip-rule="evenodd" d="M253.726 54.3048C254.387 55.4063 253.138 57.4205 252.911 58.5515C254.017 58.4234 256.754 55.7549 257.524 56.1948C259.127 57.1105 255.74 60.304 255.089 60.7721C249.889 64.512 250.826 53.6937 253.726 54.3048Z" fill="black"/>
<path fill-rule="evenodd" clip-rule="evenodd" d="M247.208 66.5701C249.151 66.0289 251.77 69.5179 250.511 71.2457C249.606 72.4851 248.489 71.7763 248.206 70.6852C248.062 70.1288 248.189 69.4583 248 68.8377C247.768 68.0736 247.457 67.3294 247.208 66.5701Z" fill="black"/>
<path fill-rule="evenodd" clip-rule="evenodd" d="M187.453 51.5314C188.93 52.7739 185.911 55.8033 184.398 53.4312C183.981 52.7787 183.906 52.1832 184.522 51.9422C184.835 51.8208 185.57 52.2187 186.009 52.1483C186.491 52.0711 187.016 51.7318 187.453 51.5314Z" fill="black"/>
<path fill-rule="evenodd" clip-rule="evenodd" d="M182.377 46.5632C181.804 45.8477 180.192 41.4458 182.189 42.4263C183.192 42.9186 184.02 46.6816 182.377 46.5632Z" fill="black"/>
<path fill-rule="evenodd" clip-rule="evenodd" d="M248.297 141.235C248.241 140.68 248.184 140.125 248.128 139.568C248.864 139.945 250.344 140.316 250.6 141.159C251.082 142.741 248.844 141.475 248.297 141.235Z" fill="black"/>
<path fill-rule="evenodd" clip-rule="evenodd" d="M269.703 74.2342C269.264 73.6407 267.898 68.6899 269.083 68.8032C269.29 70.5991 269.333 72.4643 269.703 74.2342Z" fill="black"/>
<path fill-rule="evenodd" clip-rule="evenodd" d="M251.232 130.066C250.262 128.332 248.881 126.524 248.256 124.638C249.72 125.824 250.864 128.246 251.232 130.066Z" fill="black"/>
<path fill-rule="evenodd" clip-rule="evenodd" d="M291.025 126.045C291.085 126.674 291.144 127.302 291.203 127.931C290.324 128.158 290.971 126.253 291.025 126.045Z" fill="black"/>
<path fill-rule="evenodd" clip-rule="evenodd" d="M248.258 124.641C247.842 124.188 247.663 123.631 247.56 123.041C247.792 123.574 248.025 124.108 248.258 124.641Z" fill="black"/>
<path fill-rule="evenodd" clip-rule="evenodd" d="M253.285 153.104C253.3 152.545 253.316 151.985 253.331 151.427C253.316 151.987 253.3 152.546 253.285 153.104Z" fill="black"/>
<path fill-rule="evenodd" clip-rule="evenodd" d="M187.554 62.3308C187.926 62.3771 188.299 62.4234 188.671 62.4697C188.377 62.6074 187.684 62.7904 187.554 62.3308Z" fill="black"/>
<path fill-rule="evenodd" clip-rule="evenodd" d="M261.795 158.976C262.183 158.917 262.571 158.784 262.952 158.999C262.566 158.991 262.18 158.984 261.795 158.976Z" fill="black"/>
<path fill-rule="evenodd" clip-rule="evenodd" d="M250.732 146.338C250.738 146.752 250.743 147.167 250.747 147.58C250.742 147.165 250.737 146.751 250.732 146.338Z" fill="black"/>
<path fill-rule="evenodd" clip-rule="evenodd" d="M258.739 139.891C258.715 140.332 258.691 140.774 258.666 141.215C258.691 140.773 258.715 140.332 258.739 139.891Z" fill="black"/>
<path fill-rule="evenodd" clip-rule="evenodd" d="M253.468 141.62C253.447 141.235 253.426 140.85 253.405 140.467C253.426 140.851 253.447 141.236 253.468 141.62Z" fill="black"/>
<path fill-rule="evenodd" clip-rule="evenodd" d="M264.977 145.012C264.957 145.354 264.936 145.696 264.915 146.038C264.936 145.695 264.957 145.353 264.977 145.012Z" fill="black"/>
<path fill-rule="evenodd" clip-rule="evenodd" d="M195.422 153.661C195.045 153.851 194.668 153.87 194.293 153.659C194.67 153.66 195.046 153.661 195.422 153.661Z" fill="black"/>
<path fill-rule="evenodd" clip-rule="evenodd" d="M233.996 50.1904C234.002 50.529 234.007 50.8676 234.012 51.2048C234.007 50.8658 234.001 50.5282 233.996 50.1904Z" fill="black"/>
<path fill-rule="evenodd" clip-rule="evenodd" d="M276.293 60.7302C276.291 60.3961 276.289 60.0619 276.287 59.7284C276.464 60.0619 276.468 60.3957 276.293 60.7302Z" fill="black"/>
<path fill-rule="evenodd" clip-rule="evenodd" d="M185.002 61.3396C184.984 60.9846 184.966 60.6298 184.949 60.2754C184.967 60.6306 184.984 60.985 185.002 61.3396Z" fill="black"/>
<path fill-rule="evenodd" clip-rule="evenodd" d="M279.837 166.213C280.098 166.215 280.358 166.216 280.616 166.218C280.355 166.216 280.096 166.215 279.837 166.213Z" fill="black"/>
<path fill-rule="evenodd" clip-rule="evenodd" d="M245.282 69.0299C244.947 68.9964 244.612 68.9627 244.277 68.9291C244.612 68.9627 244.948 68.9964 245.282 69.0299Z" fill="black"/>
<path fill-rule="evenodd" clip-rule="evenodd" d="M260.523 161.212C260.543 160.935 260.564 160.659 260.585 160.384C260.564 160.66 260.543 160.936 260.523 161.212Z" fill="black"/>
<path fill-rule="evenodd" clip-rule="evenodd" d="M224.241 65.4896C223.912 65.4866 223.581 65.4838 223.252 65.481C223.584 65.289 223.913 65.3439 224.241 65.4896Z" fill="black"/>
<path fill-rule="evenodd" clip-rule="evenodd" d="M180.215 30.9383C179.882 30.9277 179.531 31.101 179.224 30.8373C179.554 30.8709 179.885 30.9046 180.215 30.9383Z" fill="black"/>
<path fill-rule="evenodd" clip-rule="evenodd" d="M171.233 63.561C170.914 63.5903 170.595 63.6196 170.276 63.6486C170.595 63.6194 170.914 63.5903 171.233 63.561Z" fill="black"/>
<path fill-rule="evenodd" clip-rule="evenodd" d="M191.319 153.375C190.984 153.41 190.647 153.445 190.313 153.48C190.648 153.445 190.984 153.41 191.319 153.375Z" fill="black"/>
<path fill-rule="evenodd" clip-rule="evenodd" d="M199.675 59.2259C199.348 59.2329 199.021 59.24 198.694 59.247C199.018 59.1168 199.343 58.9942 199.675 59.2259Z" fill="black"/>
<path fill-rule="evenodd" clip-rule="evenodd" d="M253.274 148.844C253.272 148.56 253.27 148.276 253.268 147.992C253.27 148.277 253.272 148.56 253.274 148.844Z" fill="black"/>
<path fill-rule="evenodd" clip-rule="evenodd" d="M291.143 124.758C291.108 125.101 291.072 125.444 291.037 125.788C291.072 125.445 291.108 125.101 291.143 124.758Z" fill="black"/>
<path fill-rule="evenodd" clip-rule="evenodd" d="M248.648 146.887C248.623 146.595 248.599 146.302 248.574 146.011C248.599 146.303 248.624 146.595 248.648 146.887Z" fill="black"/>
<path fill-rule="evenodd" clip-rule="evenodd" d="M138.507 144.202C138.447 144.493 138.235 144.55 137.87 144.374L138.507 144.202Z" fill="black"/>
<path fill-rule="evenodd" clip-rule="evenodd" d="M260.873 144.333C260.853 144.079 260.834 143.825 260.815 143.572C260.835 143.826 260.853 144.08 260.873 144.333Z" fill="black"/>
<path fill-rule="evenodd" clip-rule="evenodd" d="M250.57 142.167C250.57 142.416 250.57 142.665 250.569 142.914C250.57 142.665 250.57 142.416 250.57 142.167Z" fill="black"/>
<path fill-rule="evenodd" clip-rule="evenodd" d="M233.945 52.651C233.945 52.887 233.945 53.1227 233.945 53.3574C233.945 53.1212 233.945 52.8861 233.945 52.651Z" fill="black"/>
<path fill-rule="evenodd" clip-rule="evenodd" d="M133.439 107.906C133.412 108.155 133.385 108.404 133.358 108.651C133.385 108.402 133.412 108.154 133.439 107.906Z" fill="black"/>
<path fill-rule="evenodd" clip-rule="evenodd" d="M298.507 124.995C298.493 124.761 298.478 124.527 298.464 124.294C298.478 124.529 298.493 124.762 298.507 124.995Z" fill="black"/>
<path fill-rule="evenodd" clip-rule="evenodd" d="M156.191 155.895C155.906 155.89 155.622 155.886 155.337 155.882C155.625 155.684 155.909 155.726 156.191 155.895Z" fill="black"/>
<path fill-rule="evenodd" clip-rule="evenodd" d="M189.347 46.51C189.343 46.2753 189.338 46.0406 189.333 45.8066C189.479 46.0389 189.526 46.2723 189.347 46.51Z" fill="black"/>
<path fill-rule="evenodd" clip-rule="evenodd" d="M166.614 43.5343C166.634 43.3028 166.654 43.0713 166.674 42.8412C166.654 43.0731 166.634 43.3036 166.614 43.5343Z" fill="black"/>
<path fill-rule="evenodd" clip-rule="evenodd" d="M260.706 124.578C260.697 124.322 260.687 124.067 260.677 123.812C260.687 124.067 260.697 124.323 260.706 124.578Z" fill="black"/>
<path fill-rule="evenodd" clip-rule="evenodd" d="M258.876 137.759C258.869 138 258.862 138.241 258.855 138.48C258.862 138.238 258.869 137.998 258.876 137.759Z" fill="black"/>
<path fill-rule="evenodd" clip-rule="evenodd" d="M226.105 160.968C226.283 160.968 226.462 160.968 226.638 160.968C226.459 160.968 226.283 160.968 226.105 160.968Z" fill="black"/>
<path fill-rule="evenodd" clip-rule="evenodd" d="M139.306 161.09C139.484 161.094 139.661 161.099 139.837 161.104C139.659 161.099 139.482 161.095 139.306 161.09Z" fill="black"/>
<path fill-rule="evenodd" clip-rule="evenodd" d="M246.985 139.969C245.249 138.627 243.736 136.619 243.383 134.47C244.129 135.314 244.757 136.256 245.504 137.1C245.801 137.434 246.165 137.723 246.45 138.065C247.1 138.842 246.985 138.877 246.985 139.969Z" fill="black"/>
<path fill-rule="evenodd" clip-rule="evenodd" d="M240.884 130.896C240.051 128.975 239.328 126.646 239.473 124.526C240.048 126.45 241.381 128.867 240.884 130.896Z" fill="black"/>
<path fill-rule="evenodd" clip-rule="evenodd" d="M243.674 142.189C243.659 142.747 243.645 143.305 243.632 143.861C243.646 143.303 243.66 142.746 243.674 142.189Z" fill="black"/>
<path fill-rule="evenodd" clip-rule="evenodd" d="M133.478 157.347C134.048 157.38 134.617 157.414 135.186 157.448C134.615 157.456 134.035 157.595 133.478 157.347Z" fill="black"/>
<path fill-rule="evenodd" clip-rule="evenodd" d="M243.675 140.348C243.677 140.823 243.678 141.298 243.681 141.773C243.678 141.297 243.677 140.822 243.675 140.348Z" fill="black"/>
<path fill-rule="evenodd" clip-rule="evenodd" d="M220.275 85.2152C219.954 85.1986 219.634 85.1819 219.315 85.1653C219.637 85.1819 219.956 85.1986 220.275 85.2152Z" fill="black"/>
<path fill-rule="evenodd" clip-rule="evenodd" d="M225.49 73.3887C225.489 73.0028 225.487 72.617 225.486 72.2319C225.487 72.618 225.489 73.0034 225.49 73.3887Z" fill="black"/>
<path fill-rule="evenodd" clip-rule="evenodd" d="M218.605 83.0679C218.591 82.7965 218.446 82.6598 218.171 82.658C218.723 82.3601 218.868 82.4969 218.605 83.0679Z" fill="black"/>
<path fill-rule="evenodd" clip-rule="evenodd" d="M234.942 104.534C234.963 104.191 234.985 103.847 235.007 103.505C234.985 103.848 234.963 104.191 234.942 104.534Z" fill="black"/>
<path fill-rule="evenodd" clip-rule="evenodd" d="M222.263 110.972L223.407 110.964C223.026 110.967 222.644 110.969 222.263 110.972Z" fill="black"/>
<path fill-rule="evenodd" clip-rule="evenodd" d="M233.175 69.13C232.91 69.1323 232.644 69.1344 232.38 69.1364C232.647 69.1343 232.911 69.1323 233.175 69.13Z" fill="black"/>
<path fill-rule="evenodd" clip-rule="evenodd" d="M288.605 162.041C288.939 162.039 289.272 162.037 289.605 162.036C289.272 162.245 288.939 162.24 288.605 162.041Z" fill="black"/>
<path fill-rule="evenodd" clip-rule="evenodd" d="M148.664 115.879C148.437 115.885 148.212 115.891 147.988 115.898C148.215 115.891 148.439 115.885 148.664 115.879Z" fill="black"/>
<path fill-rule="evenodd" clip-rule="evenodd" d="M268.701 65.9207C268.915 66.1271 268.634 66.6018 268.379 66.4382C268.486 66.2656 268.594 66.0932 268.701 65.9207Z" fill="black"/>
<path fill-rule="evenodd" clip-rule="evenodd" d="M164.216 136.778C164.225 136.487 164.235 136.195 164.245 135.902C164.235 136.196 164.225 136.487 164.216 136.778Z" fill="black"/>
<path fill-rule="evenodd" clip-rule="evenodd" d="M240.615 136.938C240.63 136.634 240.646 136.329 240.661 136.025C240.646 136.33 240.63 136.634 240.615 136.938Z" fill="black"/>
<path fill-rule="evenodd" clip-rule="evenodd" d="M293.943 105.184C293.955 105.489 293.968 105.794 293.981 106.098C293.968 105.793 293.955 105.488 293.943 105.184Z" fill="black"/>
<path fill-rule="evenodd" clip-rule="evenodd" d="M237.796 116.336C237.812 116.033 237.829 115.73 237.845 115.427C237.829 115.731 237.812 116.034 237.796 116.336Z" fill="black"/>
<path fill-rule="evenodd" clip-rule="evenodd" d="M208.589 148.601C208.369 148.601 208.15 148.601 207.934 148.601C208.154 148.601 208.372 148.601 208.589 148.601Z" fill="black"/>
<path fill-rule="evenodd" clip-rule="evenodd" d="M227.906 74.5281C227.892 74.8113 227.88 75.0943 227.867 75.3761C227.88 75.0927 227.893 74.8103 227.906 74.5281Z" fill="black"/>
<path fill-rule="evenodd" clip-rule="evenodd" d="M232.758 143.225C233.096 142.986 233.423 143.145 233.752 143.248C233.42 143.24 233.09 143.233 232.758 143.225Z" fill="black"/>
<path fill-rule="evenodd" clip-rule="evenodd" d="M193.39 62.1881C193.169 62.1791 192.947 62.1699 192.728 62.1599C192.951 62.1689 193.17 62.1786 193.39 62.1881Z" fill="black"/>
<path fill-rule="evenodd" clip-rule="evenodd" d="M247.07 148.433C247.05 148.151 247.03 147.87 247.01 147.588C247.03 147.871 247.05 148.152 247.07 148.433Z" fill="black"/>
<path fill-rule="evenodd" clip-rule="evenodd" d="M228.946 116.605C228.763 116.606 228.58 116.608 228.4 116.609C228.584 116.608 228.764 116.607 228.946 116.605Z" fill="black"/>
<path fill-rule="evenodd" clip-rule="evenodd" d="M236.644 126.846C236.644 126.612 236.644 126.376 236.644 126.142C236.644 126.378 236.644 126.612 236.644 126.846Z" fill="black"/>
<path fill-rule="evenodd" clip-rule="evenodd" d="M224.962 144.095C225.236 144.06 225.509 144.025 225.782 143.989C225.509 144.025 225.235 144.06 224.962 144.095Z" fill="black"/>
<path fill-rule="evenodd" clip-rule="evenodd" d="M213.143 109.878C213.439 109.877 213.735 109.874 214.031 109.873C213.736 110.047 213.439 110.014 213.143 109.878Z" fill="black"/>
<path fill-rule="evenodd" clip-rule="evenodd" d="M228.49 81.0901C228.319 81.0886 228.148 81.087 227.979 81.0856C228.151 81.087 228.321 81.0886 228.49 81.0901Z" fill="black"/>
<path fill-rule="evenodd" clip-rule="evenodd" d="M177.921 124.716C177.744 124.714 177.568 124.711 177.393 124.709C177.571 124.711 177.746 124.714 177.921 124.716Z" fill="black"/>
<path fill-rule="evenodd" clip-rule="evenodd" d="M143.827 113.139C144.123 113.142 144.418 113.146 144.714 113.148C144.417 113.315 144.121 113.32 143.827 113.139Z" fill="black"/>
<path fill-rule="evenodd" clip-rule="evenodd" d="M293.963 113.629C293.945 113.854 293.926 114.079 293.908 114.304C293.927 114.078 293.945 113.853 293.963 113.629Z" fill="black"/>
<path fill-rule="evenodd" clip-rule="evenodd" d="M218.739 149.882C218.764 149.635 218.789 149.389 218.815 149.144C218.789 149.391 218.764 149.636 218.739 149.882Z" fill="black"/>
<path fill-rule="evenodd" clip-rule="evenodd" d="M170.955 120.533C171.253 120.538 171.552 120.542 171.851 120.547C171.55 120.754 171.253 120.623 170.955 120.533Z" fill="black"/>
<path fill-rule="evenodd" clip-rule="evenodd" d="M214.759 156.235C214.786 156.494 214.811 156.752 214.838 157.011C214.811 156.752 214.786 156.494 214.759 156.235Z" fill="black"/>
<path fill-rule="evenodd" clip-rule="evenodd" d="M240.625 139.215C240.624 138.974 240.623 138.733 240.623 138.492C240.624 138.734 240.624 138.975 240.625 139.215Z" fill="black"/>
<path fill-rule="evenodd" clip-rule="evenodd" d="M135.326 157.482C135.608 157.519 135.888 157.556 136.17 157.593C135.888 157.556 135.607 157.519 135.326 157.482Z" fill="black"/>
<path fill-rule="evenodd" clip-rule="evenodd" d="M140.595 157.596C140.873 157.369 141.154 157.439 141.437 157.584C141.156 157.588 140.875 157.592 140.595 157.596Z" fill="black"/>
<path fill-rule="evenodd" clip-rule="evenodd" d="M221.842 158.873C222.122 158.836 222.402 158.798 222.682 158.761C222.401 158.798 222.122 158.836 221.842 158.873Z" fill="black"/>
<path fill-rule="evenodd" clip-rule="evenodd" d="M227.767 76.2397C227.755 76.4705 227.742 76.7014 227.73 76.9307C227.742 76.6994 227.755 76.4695 227.767 76.2397Z" fill="black"/>
<path fill-rule="evenodd" clip-rule="evenodd" d="M160.494 131.256C160.52 131.011 160.545 130.766 160.571 130.522C160.545 130.767 160.52 131.011 160.494 131.256Z" fill="black"/>
<path fill-rule="evenodd" clip-rule="evenodd" d="M225.564 70.2721C225.571 70.0317 225.579 69.7914 225.586 69.5522C225.579 69.793 225.571 70.0326 225.564 70.2721Z" fill="black"/>
<path fill-rule="evenodd" clip-rule="evenodd" d="M171.007 128.532C171.032 128.777 171.057 129.023 171.082 129.267C171.057 129.021 171.032 128.776 171.007 128.532Z" fill="black"/>
<path fill-rule="evenodd" clip-rule="evenodd" d="M218.07 156.301C218.236 156.786 218.175 157.913 217.706 158.254C216.735 158.963 216.635 157.669 216.441 156.97C215.906 155.03 215.044 152.865 214.825 150.871C214.758 150.259 214.721 149.113 215.53 148.908C216.311 148.709 216.705 149.946 216.975 150.581C217.722 152.345 218.155 154.389 218.07 156.301Z" fill="black"/>
<path fill-rule="evenodd" clip-rule="evenodd" d="M218.068 156.3C218.08 156.051 218.091 155.8 218.102 155.55C218.091 155.801 218.08 156.051 218.068 156.3Z" fill="black"/>
</g>
</g>
<defs>
<clipPath id="clip0_3250_30799">
<rect width="322.288" height="197.07" fill="white"/>
</clipPath>
</defs>
</svg>
